<?xml version="1.0" standalone="no"?>
<!DOCTYPE svg PUBLIC "-//W3C//DTD SVG 20010904//EN"
 "http://www.w3.org/TR/2001/REC-SVG-20010904/DTD/svg10.dtd">
<svg version="1.0" xmlns="http://www.w3.org/2000/svg"
 width="817.000000pt" height="817.000000pt" viewBox="0 0 817.000000 817.000000"
 preserveAspectRatio="xMidYMid meet">
<metadata>
Created by potrace 1.14, written by Peter Selinger 2001-2017
</metadata>
<g transform="translate(0.000000,817.000000) scale(0.100000,-0.100000)"
fill="#000000" stroke="none">
<path d="M0 7196 l0 -974 163 1 c159 0 251 -11 305 -39 l23 -11 -23 -7 c-13
-4 -123 -10 -245 -13 l-223 -6 0 -1319 0 -1318 24 15 c19 13 29 14 45 5 29
-15 29 -75 1 -90 -22 -12 -54 0 -63 22 -3 7 -6 -21 -6 -62 -1 -82 4 -96 34
-101 15 -3 21 -15 26 -49 4 -25 2 -46 -2 -48 -14 -6 -11 -64 3 -60 6 2 14 10
16 18 3 7 0 10 -7 6 -12 -8 -7 11 16 54 11 21 10 26 -4 31 -12 4 -13 8 -5 13
7 4 17 4 22 1 6 -3 10 1 10 10 0 11 -7 15 -20 13 -10 -2 -19 2 -20 7 -2 20 38
16 45 -4 7 -22 21 -28 27 -12 2 5 9 3 15 -4 10 -11 10 -17 -2 -29 -24 -23 -18
-34 18 -33 25 2 31 6 29 20 -3 15 1 17 17 12 11 -3 23 -1 27 6 4 7 3 9 -4 6
-5 -4 -21 -3 -34 2 -19 8 -14 10 30 10 28 1 52 -3 52 -9 0 -5 5 -10 11 -10 5
0 7 5 4 10 -3 6 1 10 9 10 10 0 13 -6 10 -15 -4 -8 -1 -15 5 -15 7 0 14 7 17
15 5 11 10 12 25 2 24 -15 24 -24 2 -30 -14 -4 -12 -5 5 -6 14 -1 22 5 22 15
0 10 6 14 17 10 10 -3 59 -10 108 -17 50 -6 94 -16 98 -23 6 -8 10 -8 13 1 6
13 86 -13 132 -43 12 -8 22 -11 22 -7 0 5 5 1 10 -7 6 -10 26 -15 58 -16 100
-2 169 -50 291 -203 55 -68 59 -81 37 -108 -37 -45 -96 -128 -96 -135 0 -21
27 -5 37 22 19 50 19 49 103 -96 25 -44 74 -152 108 -240 34 -87 71 -176 82
-196 12 -23 29 -94 42 -178 20 -129 32 -165 40 -124 2 14 10 11 37 -15 18 -17
37 -31 42 -31 5 0 9 -4 9 -10 0 -5 -4 -10 -10 -10 -5 0 -10 -4 -10 -10 0 -5
10 -9 23 -7 19 2 22 -2 19 -32 -1 -19 -10 -40 -20 -47 -12 -10 -13 -13 -3 -14
9 0 11 -8 6 -27 -11 -43 -14 -154 -6 -172 42 -83 74 -200 60 -222 -4 -7 -5
-17 -2 -23 8 -12 16 -73 15 -115 0 -18 2 -30 6 -27 3 4 18 -28 32 -71 14 -43
31 -87 37 -98 22 -40 57 -249 54 -323 -1 -33 25 -92 41 -92 4 0 8 -6 8 -14 0
-8 9 -31 21 -50 11 -19 18 -40 15 -45 -4 -5 -1 -13 5 -16 5 -4 8 -13 5 -21 -3
-8 -2 -14 3 -14 9 0 34 -117 30 -141 -3 -18 16 -65 30 -74 6 -3 11 -19 11 -34
0 -16 7 -34 15 -41 8 -6 14 -15 13 -18 0 -4 0 -19 1 -34 l1 -28 839 0 838 0 7
93 c3 51 3 120 0 153 -4 33 -1 114 6 180 15 150 0 545 -36 949 -37 419 -51
601 -63 800 -13 211 -26 359 -52 620 -11 105 -26 255 -34 335 -7 80 -23 198
-34 263 -26 149 -26 145 4 139 14 -2 25 -10 25 -17 0 -6 11 -25 25 -41 14 -16
41 -52 60 -80 54 -80 51 -79 180 -90 145 -11 316 -9 324 4 4 7 27 15 51 17 45
4 110 33 110 48 0 4 5 5 11 2 5 -4 19 1 29 10 10 9 25 17 32 19 8 1 25 12 39
25 31 29 59 45 59 32 0 -5 -6 -12 -12 -15 -7 -3 -4 -4 8 -1 32 8 50 -20 37
-55 -9 -23 -8 -30 3 -34 9 -4 14 -21 14 -51 0 -25 5 -45 10 -45 6 0 10 -7 10
-15 0 -9 6 -12 15 -9 13 5 17 -2 17 -26 0 -3 -3 -15 -7 -27 -3 -13 -2 -23 4
-23 5 0 12 8 14 18 4 15 5 15 6 0 0 -9 -8 -38 -20 -65 -29 -69 -6 -41 34 42
67 137 82 197 79 324 -2 122 9 139 28 42 15 -78 12 -213 -6 -327 -9 -58 -19
-226 -25 -409 -10 -357 -22 -662 -40 -1030 -12 -249 -9 -441 16 -1090 3 -55 7
-203 10 -330 3 -126 8 -254 11 -282 l5 -53 280 0 c216 0 279 3 279 13 0 21 53
112 92 157 37 43 38 43 47 19 6 -13 10 -17 11 -9 0 8 2 36 4 62 4 46 23 78 46
78 6 0 9 4 5 10 -3 5 -1 17 5 27 5 10 19 43 31 73 11 30 24 57 28 60 11 8 71
135 71 151 0 8 9 29 20 47 11 18 20 37 20 43 0 20 43 109 53 109 5 0 15 -7 22
-16 10 -14 7 -25 -12 -62 -24 -45 -24 -45 -5 -65 16 -16 23 -17 41 -8 17 10
22 9 27 -3 7 -19 -3 -36 -21 -36 -8 0 -11 -7 -8 -18 2 -10 -3 -24 -11 -31 -9
-8 -16 -17 -16 -22 0 -14 30 -10 36 4 5 14 37 20 72 12 15 -4 22 -13 22 -30 0
-28 30 -41 60 -25 20 11 24 20 21 52 -1 9 7 35 19 58 l21 41 -22 30 c-17 24
-20 39 -16 73 4 30 2 49 -9 64 -11 16 -14 45 -12 121 2 55 1 101 -2 104 -3 2
-15 8 -27 11 -20 6 -25 1 -42 -36 -11 -24 -27 -64 -36 -91 -15 -42 -20 -47
-47 -47 l-31 0 6 68 c4 37 7 76 7 87 0 11 12 33 26 48 14 16 23 31 19 35 -4 4
-10 1 -12 -5 -6 -16 -23 -17 -23 -2 0 6 -13 24 -29 40 -23 22 -30 39 -33 80
-5 75 3 83 71 73 31 -4 153 -6 272 -5 120 1 219 -1 222 -6 2 -4 1 -33 -3 -62
-6 -49 -12 -60 -54 -97 -25 -23 -59 -45 -74 -49 -15 -3 -40 -16 -56 -29 -24
-19 -30 -32 -34 -78 -3 -35 0 -58 7 -62 6 -4 11 -24 11 -45 0 -20 4 -41 9 -47
6 -5 11 -20 13 -34 2 -14 7 -30 10 -36 4 -6 8 -26 9 -45 2 -19 6 -41 10 -49 4
-9 9 -45 10 -80 2 -55 7 -71 33 -103 25 -32 28 -41 18 -55 -34 -48 -46 -140
-28 -218 7 -26 4 -32 -19 -42 -23 -11 -32 -10 -51 3 -23 15 -54 20 -54 9 0
-14 57 -64 73 -64 10 0 15 -5 12 -10 -4 -6 -2 -17 5 -24 9 -12 16 -12 40 1 33
16 37 25 16 42 -15 12 -10 55 5 45 5 -3 9 0 9 7 0 7 8 5 20 -6 15 -14 20 -31
20 -71 0 -39 5 -58 19 -71 10 -10 22 -28 25 -40 l7 -23 1000 0 999 0 0 1694 0
1694 -51 -19 c-28 -11 -81 -35 -119 -54 -38 -19 -72 -35 -75 -35 -5 0 3 655
10 825 0 22 2 157 3 300 1 143 6 266 11 274 8 12 17 13 64 1 50 -11 71 -15
118 -19 13 -1 15 -13 11 -79 -3 -59 0 -86 11 -108 14 -26 16 34 17 702 l0 731
-67 7 c-221 21 -428 159 -524 348 -72 142 -96 353 -52 455 11 26 29 68 39 93
29 69 85 150 145 209 69 67 115 98 203 136 l71 31 6 150 c4 82 10 303 13 492
l7 342 -2984 0 -2984 0 -11 -86 c-7 -48 -9 -91 -6 -96 12 -20 -8 -108 -27
-118 -10 -6 -80 -22 -156 -36 l-136 -25 -21 21 c-18 17 -21 32 -20 93 1 39 2
83 4 97 1 14 -2 53 -6 88 l-7 62 -828 0 -829 0 0 -974z m2004 529 c8 -21 -21
-31 -151 -50 -59 -8 -117 -17 -129 -20 -11 -2 -29 2 -40 10 -18 13 -18 15 -2
31 11 11 48 20 115 28 154 19 200 19 207 1z m7 -156 c8 -15 9 -86 5 -243 -7
-276 -15 -589 -22 -951 -3 -154 -9 -435 -13 -625 -5 -190 -11 -538 -15 -775
-3 -236 -8 -504 -11 -595 -2 -91 -7 -343 -11 -560 -3 -217 -8 -398 -11 -402
-2 -5 -12 -8 -22 -8 -34 0 -45 -28 -43 -106 2 -84 0 -87 -90 -104 -60 -12
-103 -47 -140 -116 -13 -24 -26 -44 -29 -44 -4 0 -5 62 -4 138 2 75 6 493 9
927 6 737 14 1418 36 2839 10 682 -6 613 147 632 162 19 200 17 214 -7z m3172
-1036 c86 -32 98 -51 63 -102 -50 -71 -79 -160 -84 -254 -4 -80 8 -163 28
-192 4 -5 15 -34 25 -62 l19 -53 -22 -20 c-12 -12 -41 -27 -63 -35 -55 -20
-191 -20 -228 0 -16 8 -31 12 -34 9 -7 -7 -67 24 -67 35 0 5 -17 16 -37 24
-105 42 -180 230 -149 374 16 74 67 165 114 202 18 14 43 34 54 43 26 22 106
49 172 57 75 10 133 3 209 -26z m894 -385 c18 -18 33 -35 33 -39 0 -5 11 -20
25 -35 30 -32 54 -106 61 -189 13 -141 -76 -283 -225 -356 -59 -30 -75 -33
-156 -34 -85 0 -95 2 -168 39 -43 21 -81 44 -84 52 -3 8 -11 14 -18 14 -12 0
-75 84 -75 100 0 3 42 11 93 18 152 19 214 43 291 113 70 65 126 152 146 229
6 25 16 62 21 83 5 20 13 37 16 37 4 0 22 -14 40 -32z m-5249 -181 c10 -10 24
-17 31 -17 19 0 43 -28 31 -35 -5 -3 -10 -27 -10 -52 l0 -46 -61 7 c-34 3 -70
6 -79 6 -39 0 -30 35 23 91 22 25 22 25 -15 34 -23 5 -27 9 -15 12 9 2 17 8
17 12 0 14 60 5 78 -12z m3243 -445 c-6 -2 -11 -10 -11 -18 0 -16 26 -19 36
-3 3 6 15 9 25 6 11 -3 17 -1 13 4 -3 5 18 9 46 9 42 0 51 -3 46 -15 -3 -8 -1
-15 4 -15 6 0 10 -4 10 -10 0 -5 -12 -10 -26 -10 -15 0 -23 -4 -19 -10 4 -6
15 -8 26 -5 13 4 19 2 19 -9 0 -9 9 -16 20 -16 11 0 20 -5 20 -10 0 -18 63
-50 86 -44 27 7 40 -12 23 -32 -6 -8 -9 -18 -5 -21 4 -4 11 -1 16 7 6 10 7 -4
3 -38 -5 -47 -3 -54 21 -77 14 -13 27 -32 27 -42 1 -10 2 -23 3 -30 1 -13 50
-53 65 -53 16 0 14 -6 -14 -35 -14 -14 -36 -25 -48 -25 -15 0 -18 -3 -9 -8 10
-7 9 -15 -4 -40 -8 -18 -20 -32 -26 -32 -5 0 -8 -6 -5 -14 9 -24 -5 -27 -27
-7 -13 12 -41 22 -71 25 -27 3 -44 3 -37 0 23 -11 13 -26 -14 -20 -14 4 -23 3
-20 -2 3 -4 -34 -9 -81 -11 -48 -1 -102 -9 -121 -16 -19 -8 -38 -13 -42 -10
-11 7 -40 -23 -40 -40 0 -7 -3 -20 -6 -29 -4 -12 0 -16 17 -17 l24 -1 -25 -7
c-17 -5 -26 -3 -28 6 -4 17 -24 17 -20 0 2 -7 -9 -28 -25 -46 -27 -32 -28 -33
-94 -28 -41 3 -69 10 -74 19 -4 7 -17 24 -28 37 -12 14 -24 35 -27 48 -4 13
-10 23 -15 23 -4 0 -11 16 -15 35 -7 40 -19 51 -38 36 -10 -8 -18 -6 -31 9
-10 11 -24 20 -32 20 -7 0 -13 5 -13 10 0 6 -11 16 -25 22 -21 9 -23 13 -11
20 8 4 12 16 9 27 -3 10 2 30 11 44 9 13 20 55 25 92 5 44 14 72 24 80 10 7
17 24 17 39 0 22 4 26 19 21 25 -8 38 25 17 41 -13 9 -12 13 11 23 22 10 24
14 12 22 -12 9 -12 10 1 8 8 -1 22 1 30 4 51 22 103 35 116 30 9 -3 19 -2 23
4 10 15 113 63 135 63 12 0 28 5 36 10 8 5 35 8 58 7 24 -1 39 -3 33 -5z m457
-391 c3 -8 -1 -12 -9 -9 -7 2 -15 10 -17 17 -3 8 1 12 9 9 7 -2 15 -10 17 -17z
m-195 -326 c9 -9 49 -18 97 -24 45 -5 84 -12 87 -15 15 -14 -9 -17 -63 -7 -32
6 -73 11 -91 11 -18 0 -33 5 -33 10 0 6 -3 9 -7 8 -5 0 -15 1 -23 5 -8 3 -53
10 -100 15 l-85 9 102 2 c78 1 105 -2 116 -14z m-623 -56 c0 -17 -18 -9 -34
16 -25 38 -18 53 9 22 14 -15 25 -32 25 -38z m-162 29 c35 -6 61 -18 75 -34
11 -13 28 -24 36 -25 11 0 12 -2 3 -6 -10 -4 -10 -8 -1 -19 7 -8 7 -14 1 -14
-12 0 -38 30 -26 30 5 0 -20 14 -56 30 -47 21 -79 29 -116 28 -62 -1 -94 14
-49 22 32 6 48 5 133 -12z m739 -19 c29 -6 63 -19 75 -30 l23 -19 -65 5 c-45
4 -59 2 -45 -4 20 -9 20 -10 -1 -10 -11 -1 -43 6 -69 14 -27 8 -52 12 -56 9
-4 -2 -10 0 -14 6 -14 23 -65 8 -124 -37 -2 -1 2 -10 9 -18 11 -13 10 -18 -6
-30 -20 -15 -20 -15 30 -19 11 0 21 -7 24 -15 3 -10 -2 -13 -22 -9 -14 3 -26
2 -26 -3 0 -4 16 -11 35 -15 19 -3 38 -10 41 -15 12 -20 32 3 32 38 0 12 28
23 58 23 27 0 32 4 37 29 6 28 8 29 32 18 31 -15 32 -25 3 -37 -18 -8 -13 -9
20 -4 24 3 48 1 55 -4 15 -13 43 -10 59 6 23 23 31 12 26 -37 -8 -77 -55 -162
-103 -186 -90 -44 -253 -28 -316 32 -19 18 -39 30 -44 26 -4 -5 -5 -3 -1 4 4
7 -5 47 -19 88 -14 42 -23 80 -21 84 3 4 1 13 -4 21 -10 16 7 57 28 65 8 3 19
0 23 -7 7 -11 12 -11 29 0 11 7 25 10 30 7 6 -3 7 1 4 9 -4 12 5 16 43 18 117
8 171 7 220 -3z m-711 -31 c16 -12 31 -25 34 -28 3 -3 15 -13 28 -22 l23 -16
-27 -6 c-14 -4 -29 -5 -32 -1 -3 3 3 5 14 5 14 0 9 7 -18 25 -47 32 -57 32
-21 0 l28 -24 -39 -1 c-37 0 -38 1 -33 29 5 26 2 30 -31 44 l-37 15 41 1 c28
1 50 -6 70 -21z m938 -13 c-4 -8 -10 -15 -15 -15 -4 0 -6 7 -3 15 4 8 10 15
15 15 4 0 6 -7 3 -15z m-46 -35 c-7 -10 -14 -18 -15 -16 -6 6 9 36 18 36 5 0
4 -9 -3 -20z m488 1 c-10 -11 -15 -25 -11 -30 3 -6 3 -11 -2 -11 -4 0 -17 -13
-27 -28 -12 -18 -4 -12 25 16 25 23 51 42 58 42 8 0 11 6 7 15 -9 24 11 17 34
-12 20 -25 22 -37 18 -108 -4 -65 -11 -92 -37 -144 -60 -118 -129 -209 -114
-151 3 11 8 20 12 20 9 0 50 81 54 107 2 12 6 25 9 29 4 3 4 12 1 20 -3 8 1
43 7 78 12 57 8 108 -6 93 -3 -3 -8 -41 -11 -84 -6 -111 -21 -177 -44 -204
l-20 -23 -6 23 c-5 18 -11 21 -30 16 -35 -8 -44 2 -28 32 9 18 11 32 4 44 -14
27 -11 43 11 69 11 13 20 32 20 44 -1 20 -1 20 -20 -3 -11 -13 -20 -22 -21
-20 0 2 -2 30 -4 62 -4 71 11 92 80 111 28 7 52 14 54 15 2 0 -4 -8 -13 -18z
m-401 -20 c-3 -6 -12 -9 -18 -5 -7 3 -5 -1 5 -8 17 -14 18 -56 3 -132 -6 -28
-4 -40 6 -47 11 -7 11 -9 -3 -9 -16 0 -17 -7 -11 -60 4 -41 2 -64 -6 -74 -7
-8 -10 -20 -6 -26 4 -6 -1 -17 -11 -25 -18 -13 -18 -14 -1 -20 18 -8 24 -35 7
-35 -5 0 -10 -9 -10 -19 0 -11 -7 -26 -15 -35 -8 -8 -15 -22 -15 -30 0 -9 -5
-16 -11 -16 -7 0 -9 -10 -5 -25 6 -25 -8 -36 -17 -12 -3 6 -6 -3 -6 -20 -1
-21 -6 -33 -15 -33 -17 0 -26 -22 -26 -61 0 -19 -5 -29 -15 -29 -16 0 -19 25
-17 130 2 71 -19 106 -99 165 -64 47 -95 59 -64 25 10 -11 24 -20 32 -20 16 0
18 -17 2 -22 -7 -2 -3 -18 11 -41 12 -21 20 -40 17 -44 -3 -3 -15 10 -26 28
-17 27 -21 30 -27 16 -5 -14 -9 -15 -20 -6 -14 12 -18 7 -15 -23 1 -10 -3 -18
-8 -18 -6 0 -11 9 -11 20 0 14 -5 18 -17 13 -11 -4 -14 -3 -9 5 5 9 1 9 -18 3
-18 -8 -26 -6 -30 4 -3 8 -12 12 -21 9 -8 -3 -15 -1 -15 5 0 6 -5 11 -11 11
-6 0 -9 -6 -6 -13 3 -8 1 -20 -4 -28 -7 -11 -9 -11 -9 4 0 9 -4 17 -10 17 -17
0 -11 18 22 64 24 35 29 48 20 59 -7 8 -9 16 -6 20 3 3 -8 13 -25 22 -17 8
-31 19 -31 24 0 5 -7 12 -16 15 -13 5 -14 4 -6 -7 7 -8 10 -16 7 -19 -2 -2 10
-10 28 -16 28 -10 33 -16 31 -41 -4 -67 -46 -90 -156 -89 -22 0 -49 -8 -67
-21 -38 -28 -56 -26 -84 5 -12 15 -30 35 -40 44 -34 33 -19 128 24 150 17 10
19 14 8 21 -8 5 -9 9 -3 9 21 0 38 89 43 228 1 9 14 12 43 10 l43 -3 27 -80
c17 -51 24 -83 18 -89 -7 -7 -10 -5 -10 5 0 12 -2 12 -10 -1 -6 -10 -3 -21 12
-37 l20 -22 -23 5 c-23 5 -23 5 -5 -10 11 -9 25 -16 32 -16 7 0 15 -6 18 -12
3 -7 4 1 0 17 -3 17 -10 32 -15 33 -12 5 -12 22 1 22 5 0 12 -11 16 -25 3 -13
9 -24 13 -23 3 1 24 -8 47 -19 121 -63 318 -51 396 24 26 25 69 123 83 186 4
21 17 33 48 47 43 19 54 19 42 1z m-445 -1 c0 -5 -4 -10 -10 -10 -5 0 -10 5
-10 10 0 6 5 10 10 10 6 0 10 -4 10 -10z m-512 -21 c2 -5 12 -9 23 -9 10 0 19
-7 19 -15 0 -17 -35 -21 -45 -5 -3 6 -14 10 -22 10 -14 0 -13 -4 5 -20 12 -12
22 -30 22 -41 0 -12 4 -17 11 -14 6 4 8 13 5 21 -3 8 0 14 6 14 7 0 9 -16 5
-47 l-6 -48 19 35 c11 20 19 28 20 18 0 -27 -62 -85 -105 -97 -52 -14 -160
-13 -205 2 -31 11 -35 16 -32 42 5 37 31 95 44 95 5 0 6 10 3 21 l-7 22 28
-20 c50 -34 139 -59 150 -41 13 21 -5 53 -31 54 -34 2 -41 10 -25 29 10 12 24
14 64 9 28 -4 53 -11 54 -15z m-381 -41 c-3 -8 -6 -5 -6 6 -1 11 2 17 5 13 3
-3 4 -12 1 -19z m903 2 c0 -13 -11 -13 -30 0 -12 8 -11 10 8 10 12 0 22 -4 22
-10z m-860 -96 c0 -8 -4 -12 -10 -9 -5 3 -10 13 -10 21 0 8 5 12 10 9 6 -3 10
-13 10 -21z m740 -74 c0 -5 -4 -10 -10 -10 -5 0 -10 5 -10 10 0 6 5 10 10 10
6 0 10 -4 10 -10z m833 -32 c-10 -18 -20 -6 -15 19 5 24 6 25 12 8 4 -11 6
-23 3 -27z m-1469 11 c27 -6 93 -9 146 -7 l98 4 -24 -25 c-23 -23 -45 -81 -41
-111 1 -8 -2 -17 -8 -18 -5 -2 -16 -9 -23 -15 -10 -7 -16 -8 -20 0 -4 6 -28
10 -54 9 -51 -3 -56 9 -7 19 28 6 58 49 44 63 -6 6 -129 -76 -169 -113 -14
-13 -23 -30 -20 -38 3 -8 1 -18 -4 -21 -5 -3 -10 15 -11 40 0 25 -6 54 -11 64
-10 18 -8 49 6 133 5 34 9 38 28 33 11 -4 43 -11 70 -17z m1529 -93 c7 -18
-48 -80 -62 -71 -17 10 -13 56 7 71 22 18 49 18 55 0z m-1278 -39 c0 -12 5
-21 12 -20 6 1 14 -5 17 -13 5 -12 2 -15 -10 -10 -8 3 -20 6 -25 6 -17 0 -31
52 -17 61 16 10 23 3 23 -24z m1214 -62 c34 -17 46 -42 30 -61 -14 -17 -51
-18 -67 -2 -18 18 -14 78 5 78 2 0 17 -7 32 -15z m-929 -25 c0 -5 -6 -10 -12
-10 -10 0 -10 -2 -1 -8 7 -4 9 -13 4 -20 -6 -10 -13 -10 -33 0 -18 10 -22 16
-14 24 23 21 56 29 56 14z m210 -120 c0 -5 -2 -10 -4 -10 -3 0 -8 5 -11 10 -3
6 -1 10 4 10 6 0 11 -4 11 -10z m-310 -8 c0 -13 -12 -22 -22 -16 -10 6 -1 24
13 24 5 0 9 -4 9 -8z m-310 -73 c26 -54 26 -80 0 -64 -16 10 -39 -13 -35 -34
2 -10 -1 -24 -6 -32 -7 -11 -9 -10 -9 6 0 11 -6 31 -13 45 -8 15 -17 48 -20
74 -6 40 -4 51 10 61 26 20 42 7 73 -56z m180 37 c19 -4 62 -10 96 -13 51 -4
62 -2 67 12 4 9 12 13 17 10 6 -4 18 -1 26 6 12 9 19 9 38 0 13 -7 34 -13 47
-12 13 0 60 2 104 4 87 3 134 -10 112 -32 -9 -10 -7 -12 13 -9 14 2 31 7 38
12 19 12 24 2 30 -54 3 -36 1 -50 -8 -50 -10 0 -10 -3 0 -15 9 -11 9 -22 -1
-52 -6 -20 -12 -49 -11 -64 0 -18 -7 -30 -24 -39 -13 -8 -24 -20 -24 -28 0 -7
-6 -12 -12 -9 -18 6 -65 -29 -73 -54 -5 -15 -10 -17 -20 -9 -7 6 -20 8 -29 4
-19 -7 -19 -9 -7 -32 5 -9 5 -26 0 -37 -7 -18 -8 -17 -8 6 -1 35 -11 42 -28
21 -14 -16 -14 -16 -9 2 6 16 4 17 -9 6 -12 -10 -15 -10 -15 4 0 27 -18 18
-22 -11 l-4 -28 -13 30 c-12 28 -11 56 4 117 8 29 -5 37 -74 43 -49 4 -128 15
-163 21 -33 7 -37 21 -7 26 21 3 21 4 -5 30 -23 22 -26 30 -16 47 9 18 8 21
-8 21 -11 0 -22 9 -25 19 -3 11 -17 22 -36 26 -17 4 -31 11 -31 16 0 5 -9 18
-20 29 -31 31 -26 53 9 45 17 -4 32 -2 36 5 4 7 11 8 18 2 7 -5 28 -12 47 -16z
m-2666 -98 c3 -29 5 -118 3 -197 -2 -124 -4 -145 -19 -155 -40 -25 -49 30 -48
274 1 112 13 154 40 140 13 -7 20 -26 24 -62z m3356 -33 c0 -8 -4 -15 -9 -15
-13 0 -22 16 -14 24 11 11 23 6 23 -9z m-436 -311 c4 -15 5 -29 1 -32 -3 -3
-5 2 -5 11 0 10 -5 14 -15 11 -15 -6 -21 16 -8 29 12 13 21 7 27 -19z m-1929
-294 c8 -26 -1 -40 -26 -40 -13 0 -19 7 -19 23 0 40 34 53 45 17z m4962 -1991
c25 -18 17 -31 -24 -41 -33 -9 -92 65 -79 99 6 16 9 14 103 -58z m50 -41 c-3
-8 -6 -5 -6 6 -1 11 2 17 5 13 3 -3 4 -12 1 -19z m107 -379 c12 -53 -47 -60
-74 -10 -11 21 1 36 35 43 25 6 31 0 39 -33z m-60 -65 c3 -8 2 -12 -4 -9 -6 3
-10 10 -10 16 0 14 7 11 14 -7z m-906 -437 c7 -56 -54 -81 -76 -32 -24 51 -8
76 41 66 26 -5 33 -12 35 -34z m302 -292 c0 -8 -4 -15 -9 -15 -13 0 -22 16
-14 24 11 11 23 6 23 -9z"/>
<path d="M3720 5399 c0 -5 5 -7 10 -4 6 3 10 8 10 11 0 2 -4 4 -10 4 -5 0 -10
-5 -10 -11z"/>
<path d="M3940 4643 c0 -13 5 -23 10 -23 13 0 13 11 0 30 -8 12 -10 11 -10 -7z"/>
<path d="M3920 4370 c0 -5 7 -10 16 -10 8 0 12 5 9 10 -3 6 -10 10 -16 10 -5
0 -9 -4 -9 -10z"/>
<path d="M3920 4335 c0 -8 2 -15 4 -15 2 0 6 7 10 15 3 8 1 15 -4 15 -6 0 -10
-7 -10 -15z"/>
<path d="M4405 4061 c-3 -5 -1 -12 5 -16 5 -3 10 1 10 9 0 18 -6 21 -15 7z"/>
<path d="M4381 3964 c0 -11 3 -14 6 -6 3 7 2 16 -1 19 -3 4 -6 -2 -5 -13z"/>
<path d="M4130 3940 c0 -5 -6 -7 -14 -4 -7 3 -16 -2 -20 -11 -4 -12 -10 -13
-24 -6 -23 12 -43 -4 -35 -26 4 -11 0 -14 -18 -11 -20 2 -24 -1 -24 -24 -1
-25 1 -26 16 -12 9 8 26 16 38 19 36 7 120 85 91 85 -5 0 -10 -4 -10 -10z"/>
<path d="M3863 3873 c15 -2 37 -2 50 0 12 2 0 4 -28 4 -27 0 -38 -2 -22 -4z"/>
<path d="M8160 3862 c0 -10 -11 -41 -25 -69 -31 -65 -36 -154 -12 -200 9 -18
17 -39 17 -48 0 -8 4 -15 9 -15 5 0 12 -8 14 -17 3 -10 5 69 6 175 0 105 -1
192 -4 192 -3 0 -5 -8 -5 -18z"/>
<path d="M17 3276 c-23 -18 -22 -25 3 -19 11 3 20 12 20 19 0 17 0 17 -23 0z"/>
<path d="M26 3218 c-8 -31 -7 -48 2 -48 4 0 8 16 9 35 2 40 -2 45 -11 13z"/>
<path d="M250 3231 c0 -5 5 -13 10 -16 6 -3 10 -2 10 4 0 5 -4 13 -10 16 -5 3
-10 2 -10 -4z"/>
<path d="M295 3220 c-3 -5 -1 -18 4 -27 10 -16 11 -16 17 5 5 18 9 20 15 10 7
-10 9 -9 9 5 0 18 -34 24 -45 7z"/>
<path d="M106 3204 c-10 -27 -7 -38 7 -25 8 6 16 8 20 5 3 -3 3 3 0 15 -6 25
-18 27 -27 5z"/>
<path d="M212 3198 c-21 -22 -22 -22 -37 -3 -21 29 -18 11 6 -32 16 -29 19
-41 10 -55 -15 -25 -14 -48 3 -48 9 0 14 -11 13 -32 -1 -43 49 -103 64 -76 5
9 16 24 24 32 8 8 15 21 15 28 -1 9 -5 7 -14 -4 -18 -24 -29 -23 -21 2 4 13 0
31 -10 46 -9 14 -14 28 -11 31 3 3 -2 12 -10 20 -34 35 -22 -17 14 -55 16 -18
15 -25 -4 -18 -12 5 -14 1 -9 -17 4 -12 11 -26 16 -32 5 -5 9 -13 9 -17 0 -17
-17 -7 -39 23 -16 22 -20 34 -12 38 15 10 3 41 -15 41 -18 0 -18 1 8 49 17 32
24 38 35 29 7 -6 17 -8 21 -4 4 4 -1 14 -12 21 -16 12 -21 12 -33 -1 -24 -24
-26 -16 -3 21 25 41 23 44 -8 13z"/>
<path d="M415 3211 c-6 -11 9 -23 19 -14 9 9 7 23 -3 23 -6 0 -12 -4 -16 -9z"/>
<path d="M473 3213 c-15 -5 -17 -23 -4 -23 5 0 11 7 15 15 3 8 4 15 3 14 -1 0
-8 -3 -14 -6z"/>
<path d="M510 3211 c0 -17 18 -21 24 -6 3 9 0 15 -9 15 -8 0 -15 -4 -15 -9z"/>
<path d="M320 3169 c0 -10 27 -19 34 -12 11 12 6 19 -14 19 -11 0 -20 -3 -20
-7z"/>
<path d="M397 3150 c5 -21 4 -23 -9 -13 -14 12 -28 8 -28 -8 0 -5 6 -6 14 -3
18 7 27 -29 16 -66 -8 -29 2 -50 15 -30 3 5 4 10 1 10 -2 0 -1 13 4 29 5 20 5
31 -3 34 -7 2 -5 12 6 27 22 32 21 49 -3 47 -16 -1 -18 -6 -13 -27z"/>
<path d="M505 3170 c-3 -5 -1 -10 4 -10 6 0 11 5 11 10 0 6 -2 10 -4 10 -3 0
-8 -4 -11 -10z"/>
<path d="M586 3171 c-4 -5 3 -13 15 -16 12 -4 18 -12 15 -21 -7 -18 8 -18 22
-1 9 10 4 17 -18 30 -16 10 -31 13 -34 8z"/>
<path d="M665 3170 c-3 -5 -1 -10 4 -10 6 0 11 5 11 10 0 6 -2 10 -4 10 -3 0
-8 -4 -11 -10z"/>
<path d="M145 3160 c3 -5 8 -10 11 -10 2 0 4 5 4 10 0 6 -5 10 -11 10 -5 0 -7
-4 -4 -10z"/>
<path d="M456 3162 c-4 -7 0 -19 8 -28 17 -17 19 -11 7 20 -5 14 -10 16 -15 8z"/>
<path d="M10 3153 c0 -13 27 -43 40 -43 5 0 16 -7 25 -17 14 -13 18 -14 25 -3
5 8 6 18 3 24 -3 5 2 15 12 22 10 8 15 17 11 21 -4 4 -11 1 -16 -7 -5 -8 -14
-16 -20 -16 -5 -1 -12 -3 -15 -4 -16 -8 -32 -3 -47 15 -10 11 -17 15 -18 8z
m80 -33 c0 -5 -5 -10 -11 -10 -5 0 -7 5 -4 10 3 6 8 10 11 10 2 0 4 -4 4 -10z"/>
<path d="M747 3135 c21 -28 27 -30 41 -12 8 10 6 13 -11 14 -12 1 -23 7 -25
13 -2 5 -8 10 -13 10 -6 0 -2 -11 8 -25z"/>
<path d="M3865 3150 c3 -5 11 -10 16 -10 6 0 7 5 4 10 -3 6 -11 10 -16 10 -6
0 -7 -4 -4 -10z"/>
<path d="M695 3140 c27 -12 43 -12 25 0 -8 5 -22 9 -30 9 -10 0 -8 -3 5 -9z"/>
<path d="M273 3128 c-16 -20 -12 -46 6 -43 9 1 14 9 12 16 -2 8 -4 20 -4 27 0
6 -1 12 -2 12 -2 0 -7 -6 -12 -12z"/>
<path d="M520 3128 c0 -6 3 -8 7 -5 3 4 13 1 22 -6 14 -11 14 -10 2 6 -15 20
-31 22 -31 5z"/>
<path d="M570 3130 c0 -5 5 -10 10 -10 6 0 10 5 10 10 0 6 -4 10 -10 10 -5 0
-10 -4 -10 -10z"/>
<path d="M3900 3131 c0 -13 60 -55 67 -48 6 7 -46 57 -58 57 -5 0 -9 -4 -9 -9z"/>
<path d="M670 3119 c0 -5 5 -7 10 -4 6 3 10 8 10 11 0 2 -4 4 -10 4 -5 0 -10
-5 -10 -11z"/>
<path d="M433 3072 c-2 -45 19 -93 34 -79 3 4 -1 15 -10 25 -12 13 -15 28 -11
54 4 19 2 38 -2 41 -5 3 -10 -16 -11 -41z"/>
<path d="M500 3092 c0 -22 5 -32 16 -32 10 0 12 5 7 13 -4 6 -8 18 -9 25 -5
29 -14 24 -14 -6z"/>
<path d="M720 3101 c0 -13 29 -35 37 -28 7 8 -15 37 -28 37 -5 0 -9 -4 -9 -9z"/>
<path d="M37 3093 c-3 -5 0 -19 8 -29 15 -20 18 -11 6 20 -4 11 -10 15 -14 9z"/>
<path d="M630 3090 c19 -13 30 -13 30 0 0 6 -10 10 -22 10 -19 0 -20 -2 -8
-10z"/>
<path d="M5 3080 c-3 -5 -1 -10 4 -10 6 0 11 5 11 10 0 6 -2 10 -4 10 -3 0 -8
-4 -11 -10z"/>
<path d="M675 3078 c8 -21 -35 -29 -51 -9 -6 7 -17 12 -24 9 -9 -3 -8 -8 5
-22 10 -9 24 -15 31 -12 8 3 14 2 14 -3 0 -4 10 -7 23 -6 23 2 26 29 6 50 -7
7 -8 4 -4 -7z"/>
<path d="M126 3061 c10 -10 23 -16 27 -14 5 3 0 11 -10 19 -27 20 -39 17 -17
-5z"/>
<path d="M340 3065 c0 -8 5 -15 10 -15 6 0 10 7 10 15 0 8 -4 15 -10 15 -5 0
-10 -7 -10 -15z"/>
<path d="M571 3054 c0 -11 3 -14 6 -6 3 7 2 16 -1 19 -3 4 -6 -2 -5 -13z"/>
<path d="M90 3050 c0 -5 5 -10 11 -10 5 0 7 5 4 10 -3 6 -8 10 -11 10 -2 0 -4
-4 -4 -10z"/>
<path d="M533 3044 c-15 -15 -17 -34 -4 -34 8 0 24 41 18 46 -1 1 -8 -4 -14
-12z"/>
<path d="M727 3054 c-3 -3 -3 -12 0 -20 6 -16 43 -19 43 -4 0 6 -9 10 -21 10
-11 0 -17 5 -14 10 7 11 2 14 -8 4z"/>
<path d="M310 3045 c0 -7 63 -45 74 -45 5 0 -2 8 -15 18 -25 20 -59 35 -59 27z"/>
<path d="M470 3039 c0 -5 5 -7 10 -4 6 3 10 8 10 11 0 2 -4 4 -10 4 -5 0 -10
-5 -10 -11z"/>
<path d="M148 3023 c6 -2 12 -11 12 -19 0 -8 5 -14 10 -14 6 0 10 9 10 20 0
14 -6 20 -22 19 -13 0 -17 -3 -10 -6z"/>
<path d="M487 3023 c-4 -3 -7 -16 -6 -27 0 -19 1 -19 10 3 10 24 8 36 -4 24z"/>
<path d="M98 3013 c7 -3 16 -2 19 1 4 3 -2 6 -13 5 -11 0 -14 -3 -6 -6z"/>
<path d="M545 3010 c-8 -14 9 -34 23 -29 7 3 6 11 -3 22 -9 13 -15 15 -20 7z"/>
<path d="M650 3014 c0 -5 7 -18 15 -28 12 -16 15 -17 15 -4 0 8 -7 21 -15 28
-8 7 -15 9 -15 4z"/>
<path d="M110 2990 c0 -5 5 -10 10 -10 6 0 10 5 10 10 0 6 -4 10 -10 10 -5 0
-10 -4 -10 -10z"/>
<path d="M385 2982 c-6 -4 -16 -19 -24 -35 -10 -18 -20 -25 -31 -22 -9 3 -25
-4 -36 -16 -18 -20 -18 -20 9 -14 18 5 27 3 27 -5 0 -7 5 -6 15 4 8 8 15 18
15 23 0 5 5 14 12 21 9 9 15 7 25 -6 13 -15 13 -15 4 5 -6 12 -8 29 -5 37 7
18 4 19 -11 8z"/>
<path d="M520 2967 c0 -10 8 -17 18 -17 9 0 13 4 7 8 -5 4 -13 11 -17 16 -5 5
-8 2 -8 -7z"/>
<path d="M296 2949 c-23 -27 -15 -35 9 -9 10 11 16 22 14 25 -3 2 -13 -5 -23
-16z"/>
<path d="M330 2959 c0 -5 5 -7 10 -4 6 3 10 8 10 11 0 2 -4 4 -10 4 -5 0 -10
-5 -10 -11z"/>
<path d="M580 2960 c0 -5 5 -10 10 -10 6 0 10 5 10 10 0 6 -4 10 -10 10 -5 0
-10 -4 -10 -10z"/>
<path d="M707 2946 c3 -13 -1 -34 -7 -47 l-12 -24 21 22 c17 18 19 27 11 48
-12 32 -19 32 -13 1z"/>
<path d="M187 2954 c-4 -4 -7 -17 -7 -28 1 -19 1 -20 11 -3 11 19 8 43 -4 31z"/>
<path d="M85 2940 c-3 -5 -1 -10 4 -10 6 0 11 5 11 10 0 6 -2 10 -4 10 -3 0
-8 -4 -11 -10z"/>
<path d="M430 2940 c0 -5 7 -10 15 -10 8 0 15 5 15 10 0 6 -7 10 -15 10 -8 0
-15 -4 -15 -10z"/>
<path d="M225 2930 c-9 -15 -1 -23 21 -18 15 3 16 4 1 16 -11 9 -17 10 -22 2z"/>
<path d="M650 2930 c-8 -5 -11 -13 -6 -17 5 -4 11 -2 13 5 7 19 23 4 17 -16
-5 -14 -4 -15 5 -2 23 33 5 52 -29 30z"/>
<path d="M20 2920 c-9 -6 -10 -10 -3 -10 6 0 15 5 18 10 8 12 4 12 -15 0z"/>
<path d="M526 2915 c4 -8 8 -15 10 -15 2 0 4 7 4 15 0 8 -4 15 -10 15 -5 0 -7
-7 -4 -15z"/>
<path d="M60 2910 c-13 -8 -12 -10 3 -10 9 0 17 5 17 10 0 12 -1 12 -20 0z"/>
<path d="M380 2911 c0 -5 5 -13 10 -16 6 -3 10 -2 10 4 0 5 -4 13 -10 16 -5 3
-10 2 -10 -4z"/>
<path d="M423 2902 c1 -14 5 -18 11 -12 7 7 6 14 -1 21 -9 9 -12 7 -10 -9z"/>
<path d="M616 2911 c-4 -7 -5 -15 -2 -18 9 -9 19 4 14 18 -4 11 -6 11 -12 0z"/>
<path d="M570 2880 c0 -5 5 -10 10 -10 6 0 10 5 10 10 0 6 -4 10 -10 10 -5 0
-10 -4 -10 -10z"/>
<path d="M232 2864 c9 -9 21 -15 27 -13 6 2 -2 10 -17 17 -25 11 -25 11 -10
-4z"/>
<path d="M345 2869 c-11 -16 -1 -19 13 -3 7 8 8 14 3 14 -5 0 -13 -5 -16 -11z"/>
<path d="M456 2871 c-3 -5 1 -11 9 -14 9 -4 12 -1 8 9 -6 16 -10 17 -17 5z"/>
<path d="M634 2865 c23 -18 46 -19 46 -4 0 6 -7 9 -15 5 -8 -3 -15 -1 -15 4 0
6 -8 10 -17 10 -16 -1 -16 -2 1 -15z"/>
<path d="M35 2861 c-3 -5 -1 -12 5 -16 5 -3 10 1 10 9 0 18 -6 21 -15 7z"/>
<path d="M80 2863 c0 -15 19 -37 26 -31 3 4 -1 14 -10 23 -9 9 -16 13 -16 8z"/>
<path d="M397 2863 c-4 -3 -2 -12 4 -20 9 -9 8 -17 0 -27 -7 -9 -8 -17 -3 -20
6 -3 13 1 16 10 3 8 10 12 16 9 6 -3 7 1 4 9 -3 9 -11 16 -16 16 -6 0 -8 7 -4
15 5 15 -5 20 -17 8z"/>
<path d="M695 2857 c-4 -10 -5 -21 -1 -24 10 -10 18 4 13 24 -4 17 -4 17 -12
0z"/>
<path d="M163 2835 c-10 -11 -9 -13 7 -12 11 1 20 7 20 14 0 17 -12 16 -27 -2z"/>
<path d="M1 2824 c0 -11 3 -14 6 -6 3 7 2 16 -1 19 -3 4 -6 -2 -5 -13z"/>
<path d="M258 2833 c7 -3 16 -2 19 1 4 3 -2 6 -13 5 -11 0 -14 -3 -6 -6z"/>
<path d="M487 2825 c3 -8 9 -12 14 -9 12 7 11 11 -5 17 -10 4 -13 1 -9 -8z"/>
<path d="M636 2829 c4 -6 0 -15 -7 -20 -10 -6 -8 -9 9 -9 25 0 30 25 6 34 -9
4 -13 2 -8 -5z"/>
<path d="M120 2820 c0 -5 -7 -6 -17 -3 -11 4 -14 3 -9 -5 4 -7 2 -12 -3 -12
-6 0 -11 5 -11 10 0 6 -5 10 -12 10 -6 0 -8 -3 -5 -7 4 -3 1 -13 -6 -21 -10
-13 -9 -15 6 -9 10 4 29 7 41 7 15 0 22 7 23 20 1 11 0 20 -3 20 -2 0 -4 -4
-4 -10z"/>
<path d="M341 2813 c16 -27 25 -29 33 -7 4 11 2 15 -8 11 -7 -3 -19 0 -26 6
-8 8 -8 5 1 -10z"/>
<path d="M748 2805 c2 -14 6 -25 8 -25 2 0 4 11 4 25 0 14 -4 25 -9 25 -4 0
-6 -11 -3 -25z"/>
<path d="M230 2813 c1 -12 59 -67 65 -61 3 2 -8 19 -23 36 -28 31 -42 40 -42
25z"/>
<path d="M548 2813 c6 -2 18 -2 25 0 6 3 1 5 -13 5 -14 0 -19 -2 -12 -5z"/>
<path d="M696 2805 c4 -8 10 -12 15 -9 14 8 10 24 -6 24 -9 0 -12 -6 -9 -15z"/>
<path d="M310 2780 c0 -5 5 -10 11 -10 5 0 7 5 4 10 -3 6 -8 10 -11 10 -2 0
-4 -4 -4 -10z"/>
<path d="M373 2765 c-8 -8 -9 -16 -3 -20 5 -3 14 4 20 15 12 23 1 26 -17 5z"/>
<path d="M440 2770 c0 -5 5 -10 11 -10 5 0 7 5 4 10 -3 6 -8 10 -11 10 -2 0
-4 -4 -4 -10z"/>
<path d="M580 2759 c5 -9 15 -21 23 -27 11 -10 14 -7 14 16 0 21 -5 27 -23 27
-17 0 -20 -4 -14 -16z"/>
<path d="M80 2760 c0 -5 7 -10 16 -10 8 0 12 5 9 10 -3 6 -10 10 -16 10 -5 0
-9 -4 -9 -10z"/>
<path d="M675 2760 c4 -6 11 -8 16 -5 14 9 11 15 -7 15 -8 0 -12 -5 -9 -10z"/>
<path d="M425 2742 c4 -8 -1 -22 -12 -34 -12 -15 -14 -20 -4 -16 25 8 37 36
22 50 -11 11 -13 11 -6 0z"/>
<path d="M742 2730 c0 -14 2 -19 5 -12 2 6 2 18 0 25 -3 6 -5 1 -5 -13z"/>
<path d="M185 2730 c4 -6 11 -8 16 -5 14 9 11 15 -7 15 -8 0 -12 -5 -9 -10z"/>
<path d="M327 2734 c7 -3 9 -13 6 -22 -5 -13 -3 -14 7 -5 14 13 5 33 -13 32
-9 0 -9 -2 0 -5z"/>
<path d="M692 2731 c-8 -5 -12 -16 -10 -25 2 -12 6 -10 15 9 6 14 10 25 10 25
-1 0 -8 -4 -15 -9z"/>
<path d="M370 2721 c0 -6 5 -13 10 -16 6 -3 10 1 10 9 0 9 -4 16 -10 16 -5 0
-10 -4 -10 -9z"/>
<path d="M550 2720 c0 -5 5 -10 11 -10 5 0 7 5 4 10 -3 6 -8 10 -11 10 -2 0
-4 -4 -4 -10z"/>
<path d="M30 2709 c0 -5 5 -7 10 -4 6 3 10 8 10 11 0 2 -4 4 -10 4 -5 0 -10
-5 -10 -11z"/>
<path d="M111 2704 c0 -11 3 -14 6 -6 3 7 2 16 -1 19 -3 4 -6 -2 -5 -13z"/>
<path d="M455 2710 c3 -5 11 -10 16 -10 6 0 7 5 4 10 -3 6 -11 10 -16 10 -6 0
-7 -4 -4 -10z"/>
<path d="M292 2690 c7 -11 17 -20 22 -20 4 0 3 6 -3 13 -6 8 -8 17 -4 20 3 4
-1 7 -10 7 -15 0 -15 -3 -5 -20z"/>
<path d="M346 2681 c-11 -12 -14 -21 -8 -21 6 0 12 -6 15 -12 2 -7 2 -3 0 10
-4 26 5 28 23 5 17 -23 18 -3 1 21 -12 16 -14 16 -31 -3z"/>
<path d="M150 2685 c0 -5 5 -17 10 -25 5 -8 10 -10 10 -5 0 6 -5 17 -10 25 -5
8 -10 11 -10 5z"/>
<path d="M236 2679 c3 -5 12 -9 21 -9 19 0 9 13 -12 16 -8 1 -13 -2 -9 -7z"/>
<path d="M451 2674 c0 -11 3 -14 6 -6 3 7 2 16 -1 19 -3 4 -6 -2 -5 -13z"/>
<path d="M600 2685 c0 -4 7 -13 15 -22 8 -8 12 -19 9 -25 -4 -7 -2 -8 4 -4 18
11 14 34 -8 46 -11 6 -20 8 -20 5z"/>
<path d="M556 2666 c4 -10 16 -16 33 -15 20 1 22 2 6 6 -11 3 -26 10 -33 15
-9 8 -11 7 -6 -6z"/>
<path d="M210 2660 c0 -5 5 -10 10 -10 6 0 10 5 10 10 0 6 -4 10 -10 10 -5 0
-10 -4 -10 -10z"/>
<path d="M1066 2654 c-9 -22 3 -32 14 -14 12 19 12 30 1 30 -5 0 -12 -7 -15
-16z"/>
<path d="M137 2630 c13 -22 25 -30 45 -30 18 0 28 5 28 15 0 17 -16 21 -22 5
-1 -5 -16 1 -32 15 -38 32 -41 32 -19 -5z"/>
<path d="M260 2650 c-13 -8 -12 -10 3 -10 9 0 17 5 17 10 0 12 -1 12 -20 0z"/>
<path d="M519 2637 c5 -13 4 -32 -2 -45 -8 -16 -7 -26 1 -34 9 -9 12 -7 12 9
0 11 3 34 6 50 4 22 2 32 -10 36 -12 5 -13 2 -7 -16z"/>
<path d="M785 2650 c3 -5 8 -10 11 -10 2 0 4 5 4 10 0 6 -5 10 -11 10 -5 0 -7
-4 -4 -10z"/>
<path d="M45 2630 c3 -5 11 -10 16 -10 6 0 7 5 4 10 -3 6 -11 10 -16 10 -6 0
-7 -4 -4 -10z"/>
<path d="M555 2630 c-10 -17 4 -47 25 -53 20 -5 20 -5 0 23 -19 27 -19 29 -3
33 16 4 16 5 1 6 -9 0 -20 -4 -23 -9z"/>
<path d="M81 2614 c0 -11 3 -14 6 -6 3 7 2 16 -1 19 -3 4 -6 -2 -5 -13z"/>
<path d="M315 2620 c3 -5 8 -10 11 -10 2 0 4 5 4 10 0 6 -5 10 -11 10 -5 0 -7
-4 -4 -10z"/>
<path d="M380 2618 c0 -7 4 -19 9 -27 7 -10 9 -7 8 12 -2 26 -17 39 -17 15z"/>
<path d="M475 2620 c3 -5 8 -10 11 -10 2 0 4 5 4 10 0 6 -5 10 -11 10 -5 0 -7
-4 -4 -10z"/>
<path d="M600 2608 c0 -9 5 -20 10 -23 13 -8 13 5 0 25 -8 13 -10 13 -10 -2z"/>
<path d="M667 2613 c-4 -3 -7 -11 -7 -17 0 -6 5 -5 12 2 6 6 9 14 7 17 -3 3
-9 2 -12 -2z"/>
<path d="M1040 2609 c0 -5 5 -7 10 -4 6 3 10 8 10 11 0 2 -4 4 -10 4 -5 0 -10
-5 -10 -11z"/>
<path d="M32 2590 c14 -22 24 -19 15 5 -4 8 -11 15 -17 15 -6 0 -6 -7 2 -20z"/>
<path d="M280 2600 c0 -5 5 -10 10 -10 6 0 10 5 10 10 0 6 -4 10 -10 10 -5 0
-10 -4 -10 -10z"/>
<path d="M118 2593 c7 -3 16 -2 19 1 4 3 -2 6 -13 5 -11 0 -14 -3 -6 -6z"/>
<path d="M235 2591 c-3 -5 -1 -12 5 -16 5 -3 10 1 10 9 0 18 -6 21 -15 7z"/>
<path d="M70 2581 c0 -4 11 -13 25 -19 14 -6 25 -8 25 -4 0 4 -11 12 -25 19
-14 6 -25 8 -25 4z"/>
<path d="M143 2583 c-7 -3 -13 -9 -13 -14 0 -6 4 -8 9 -5 5 3 11 -3 14 -14 5
-20 37 -29 37 -10 0 5 -7 6 -17 3 -9 -4 -14 -2 -11 3 9 14 -6 41 -19 37z"/>
<path d="M715 2580 c-3 -5 -1 -10 4 -10 6 0 11 5 11 10 0 6 -2 10 -4 10 -3 0
-8 -4 -11 -10z"/>
<path d="M446 2565 c-11 -11 -16 -12 -16 -4 0 7 -3 10 -6 6 -4 -3 -4 -14 0
-23 6 -16 8 -15 23 6 l16 23 19 -24 18 -24 -8 24 c-11 32 -25 36 -46 16z"/>
<path d="M1040 2561 c0 -5 5 -13 10 -16 6 -3 10 -2 10 4 0 5 -4 13 -10 16 -5
3 -10 2 -10 -4z"/>
<path d="M210 2548 c0 -4 6 -8 14 -8 8 0 17 4 20 8 2 4 -4 8 -15 8 -10 0 -19
-4 -19 -8z"/>
<path d="M360 2550 c0 -5 5 -10 11 -10 5 0 7 5 4 10 -3 6 -8 10 -11 10 -2 0
-4 -4 -4 -10z"/>
<path d="M31 2541 c-8 -5 -9 -11 -3 -15 5 -3 12 1 16 9 6 17 6 18 -13 6z"/>
<path d="M328 2539 c-4 -9 2 -21 15 -29 19 -11 20 -11 11 1 -6 8 -13 21 -16
28 -4 13 -5 13 -10 0z"/>
<path d="M782 2530 c0 -14 2 -19 5 -12 2 6 2 18 0 25 -3 6 -5 1 -5 -13z"/>
<path d="M531 2528 c0 -9 -4 -25 -7 -35 -5 -17 -5 -17 6 0 6 10 9 25 7 35 -4
15 -5 15 -6 0z"/>
<path d="M670 2510 c-9 -16 -8 -18 5 -14 8 4 15 12 15 20 0 20 -7 17 -20 -6z"/>
<path d="M46 2504 c-8 -21 -8 -39 1 -30 8 7 15 46 9 46 -2 0 -7 -7 -10 -16z"/>
<path d="M80 2511 c0 -6 4 -13 10 -16 6 -3 7 1 4 9 -7 18 -14 21 -14 7z"/>
<path d="M473 2502 c0 -12 5 -22 9 -22 11 0 10 12 -2 30 -7 12 -9 10 -7 -8z"/>
<path d="M741 2504 c0 -11 3 -14 6 -6 3 7 2 16 -1 19 -3 4 -6 -2 -5 -13z"/>
<path d="M1131 2504 c0 -11 3 -14 6 -6 3 7 2 16 -1 19 -3 4 -6 -2 -5 -13z"/>
<path d="M0 2495 c0 -8 5 -15 10 -15 6 0 10 7 10 15 0 8 -4 15 -10 15 -5 0
-10 -7 -10 -15z"/>
<path d="M977 2503 c-4 -3 -7 -11 -7 -17 0 -6 5 -5 12 2 6 6 9 14 7 17 -3 3
-9 2 -12 -2z"/>
<path d="M208 2475 c2 -14 6 -25 8 -25 2 0 4 11 4 25 0 14 -4 25 -9 25 -4 0
-6 -11 -3 -25z"/>
<path d="M1080 2496 c0 -2 7 -7 16 -10 8 -3 12 -2 9 4 -6 10 -25 14 -25 6z"/>
<path d="M173 2473 c-15 -5 -17 -39 -3 -48 5 -3 12 6 16 20 7 29 5 34 -13 28z"/>
<path d="M296 2455 c-3 -8 -1 -15 4 -15 6 0 10 7 10 15 0 8 -2 15 -4 15 -2 0
-6 -7 -10 -15z"/>
<path d="M385 2460 c-3 -5 -1 -10 4 -10 6 0 11 5 11 10 0 6 -2 10 -4 10 -3 0
-8 -4 -11 -10z"/>
<path d="M501 2460 c-9 -5 -5 -9 10 -13 28 -7 31 -6 14 10 -6 6 -18 8 -24 3z"/>
<path d="M990 2464 c0 -3 7 -12 15 -20 13 -13 15 -13 15 -1 0 8 -7 17 -15 21
-8 3 -15 3 -15 0z"/>
<path d="M80 2456 c0 -9 40 -13 46 -5 3 5 -6 9 -20 9 -14 0 -26 -2 -26 -4z"/>
<path d="M950 2450 c0 -5 5 -10 10 -10 6 0 10 5 10 10 0 6 -4 10 -10 10 -5 0
-10 -4 -10 -10z"/>
<path d="M665 2440 c4 -6 11 -8 16 -5 14 9 11 15 -7 15 -8 0 -12 -5 -9 -10z"/>
<path d="M1051 2434 c0 -11 3 -14 6 -6 3 7 2 16 -1 19 -3 4 -6 -2 -5 -13z"/>
<path d="M105 2410 c3 -5 12 -7 20 -3 21 7 19 13 -6 13 -11 0 -18 -4 -14 -10z"/>
<path d="M260 2409 c0 -5 5 -7 10 -4 6 3 10 8 10 11 0 2 -4 4 -10 4 -5 0 -10
-5 -10 -11z"/>
<path d="M41 2374 c0 -11 3 -14 6 -6 3 7 2 16 -1 19 -3 4 -6 -2 -5 -13z"/>
<path d="M77 2379 c7 -7 15 -10 18 -7 3 3 -2 9 -12 12 -14 6 -15 5 -6 -5z"/>
<path d="M318 2378 c5 -5 16 -8 23 -6 8 3 3 7 -10 11 -17 4 -21 3 -13 -5z"/>
<path d="M375 2380 c-3 -5 -1 -10 4 -10 6 0 11 5 11 10 0 6 -2 10 -4 10 -3 0
-8 -4 -11 -10z"/>
<path d="M158 2373 c7 -3 16 -2 19 1 4 3 -2 6 -13 5 -11 0 -14 -3 -6 -6z"/>
<path d="M210 2370 c-9 -6 -10 -10 -3 -10 6 0 15 5 18 10 8 12 4 12 -15 0z"/>
<path d="M255 2370 c3 -5 8 -10 11 -10 2 0 4 5 4 10 0 6 -5 10 -11 10 -5 0 -7
-4 -4 -10z"/>
<path d="M580 2345 c0 -8 7 -15 15 -15 9 0 12 6 9 15 -4 8 -10 15 -15 15 -5 0
-9 -7 -9 -15z"/>
<path d="M955 2350 c3 -5 14 -10 23 -10 15 0 15 2 2 10 -20 13 -33 13 -25 0z"/>
<path d="M203 2335 c0 -8 4 -12 9 -9 4 3 8 9 8 15 0 5 -4 9 -8 9 -5 0 -9 -7
-9 -15z"/>
<path d="M46 2331 c-17 -6 -17 -8 -4 -14 10 -3 19 0 22 9 3 8 4 14 3 13 -1 0
-11 -4 -21 -8z"/>
<path d="M740 2320 c0 -11 4 -20 9 -20 11 0 22 26 14 34 -12 12 -23 5 -23 -14z"/>
<path d="M876 2325 c-3 -8 -1 -15 4 -15 6 0 10 7 10 15 0 8 -2 15 -4 15 -2 0
-6 -7 -10 -15z"/>
<path d="M154 2304 c3 -9 6 -20 6 -25 0 -5 5 -9 10 -9 7 0 7 6 1 19 -6 10 -7
21 -4 25 3 3 1 6 -6 6 -8 0 -11 -6 -7 -16z"/>
<path d="M239 2291 c8 -5 10 -14 6 -22 -6 -11 -5 -11 5 -2 14 12 6 33 -13 33
-8 0 -7 -3 2 -9z"/>
<path d="M285 2290 c3 -5 8 -10 11 -10 2 0 4 5 4 10 0 6 -5 10 -11 10 -5 0 -7
-4 -4 -10z"/>
<path d="M886 2287 c3 -10 9 -15 12 -12 3 3 0 11 -7 18 -10 9 -11 8 -5 -6z"/>
<path d="M930 2280 c0 -5 5 -10 11 -10 5 0 7 5 4 10 -3 6 -8 10 -11 10 -2 0
-4 -4 -4 -10z"/>
<path d="M317 2269 c7 -7 15 -10 18 -7 3 3 -2 9 -12 12 -14 6 -15 5 -6 -5z"/>
<path d="M130 2255 c0 -8 4 -15 10 -15 5 0 7 7 4 15 -4 8 -8 15 -10 15 -2 0
-4 -7 -4 -15z"/>
<path d="M215 2260 c-3 -5 -1 -10 4 -10 6 0 11 5 11 10 0 6 -2 10 -4 10 -3 0
-8 -4 -11 -10z"/>
<path d="M1120 2266 c0 -2 7 -6 15 -10 8 -3 15 -1 15 4 0 6 -7 10 -15 10 -8 0
-15 -2 -15 -4z"/>
<path d="M1166 2255 c-3 -8 -1 -15 4 -15 6 0 10 7 10 15 0 8 -2 15 -4 15 -2 0
-6 -7 -10 -15z"/>
<path d="M268 2253 c7 -3 16 -2 19 1 4 3 -2 6 -13 5 -11 0 -14 -3 -6 -6z"/>
<path d="M817 2221 c-4 -17 -3 -21 5 -13 5 5 8 16 6 23 -3 8 -7 3 -11 -10z"/>
<path d="M1120 2230 c0 -5 5 -10 10 -10 6 0 10 5 10 10 0 6 -4 10 -10 10 -5 0
-10 -4 -10 -10z"/>
<path d="M80 2219 c0 -5 5 -7 10 -4 6 3 10 8 10 11 0 2 -4 4 -10 4 -5 0 -10
-5 -10 -11z"/>
<path d="M169 2223 c-1 -5 -1 -12 0 -16 1 -5 -7 -8 -16 -7 -31 4 -53 0 -53 -7
0 -13 67 -9 79 5 8 8 8 12 1 12 -6 0 -8 5 -5 10 3 6 4 10 1 10 -3 0 -7 -3 -7
-7z"/>
<path d="M890 2213 c0 -6 8 -17 18 -24 16 -13 16 -13 2 6 -8 11 -16 22 -17 24
-2 2 -3 0 -3 -6z"/>
<path d="M1091 2209 c0 -9 6 -22 14 -29 10 -9 15 -9 15 -1 0 6 -4 11 -9 11 -5
0 -12 8 -14 18 -4 14 -5 14 -6 1z"/>
<path d="M770 2141 c0 -6 5 -13 10 -16 6 -3 10 1 10 9 0 9 -4 16 -10 16 -5 0
-10 -4 -10 -9z"/>
<path d="M18 2123 c7 -3 16 -2 19 1 4 3 -2 6 -13 5 -11 0 -14 -3 -6 -6z"/>
<path d="M140 2121 c0 -4 11 -13 25 -19 14 -6 25 -8 25 -4 0 4 -11 12 -25 19
-14 6 -25 8 -25 4z"/>
<path d="M820 2099 c0 -5 5 -7 10 -4 6 3 10 8 10 11 0 2 -4 4 -10 4 -5 0 -10
-5 -10 -11z"/>
<path d="M1043 2095 c0 -8 4 -15 9 -15 4 0 8 4 8 9 0 6 -4 12 -8 15 -5 3 -9
-1 -9 -9z"/>
<path d="M730 2085 c0 -8 2 -15 4 -15 2 0 6 7 10 15 3 8 1 15 -4 15 -6 0 -10
-7 -10 -15z"/>
<path d="M1075 2090 c-3 -6 1 -7 9 -4 18 7 21 14 7 14 -6 0 -13 -4 -16 -10z"/>
<path d="M100 2076 c0 -2 7 -6 15 -10 8 -3 15 -1 15 4 0 6 -7 10 -15 10 -8 0
-15 -2 -15 -4z"/>
<path d="M996 2072 c-3 -6 -1 -14 5 -17 14 -9 20 -2 10 14 -6 8 -11 9 -15 3z"/>
<path d="M5 2051 c-6 -11 13 -26 22 -17 4 3 1 6 -6 6 -7 0 -9 5 -6 10 3 6 4
10 1 10 -3 0 -7 -4 -11 -9z"/>
<path d="M957 2048 c-3 -9 0 -19 8 -22 7 -2 16 2 19 10 3 8 2 13 -3 9 -5 -3
-11 0 -13 7 -3 8 -7 6 -11 -4z"/>
<path d="M58 2043 c7 -3 16 -2 19 1 4 3 -2 6 -13 5 -11 0 -14 -3 -6 -6z"/>
<path d="M925 2030 c3 -5 8 -10 11 -10 2 0 4 5 4 10 0 6 -5 10 -11 10 -5 0 -7
-4 -4 -10z"/>
<path d="M135 2020 c-3 -5 -1 -10 4 -10 6 0 11 5 11 10 0 6 -2 10 -4 10 -3 0
-8 -4 -11 -10z"/>
<path d="M2 1998 c2 -12 9 -23 16 -24 7 -1 8 0 2 3 -14 7 -13 30 3 36 7 3 4 6
-6 6 -13 1 -18 -5 -15 -21z"/>
<path d="M330 2001 c0 -6 4 -13 10 -16 6 -3 7 1 4 9 -7 18 -14 21 -14 7z"/>
<path d="M961 1994 c0 -11 3 -14 6 -6 3 7 2 16 -1 19 -3 4 -6 -2 -5 -13z"/>
<path d="M73 1983 c9 -2 23 -2 30 0 6 3 -1 5 -18 5 -16 0 -22 -2 -12 -5z"/>
<path d="M138 1973 c7 -3 16 -2 19 1 4 3 -2 6 -13 5 -11 0 -14 -3 -6 -6z"/>
<path d="M76 1948 c7 -12 44 -10 44 2 0 5 -11 9 -24 8 -14 -1 -22 -6 -20 -10z"/>
<path d="M38 1943 c7 -3 16 -2 19 1 4 3 -2 6 -13 5 -11 0 -14 -3 -6 -6z"/>
<path d="M970 1929 c0 -5 5 -7 10 -4 6 3 10 8 10 11 0 2 -4 4 -10 4 -5 0 -10
-5 -10 -11z"/>
<path d="M90 1919 c0 -5 -4 -7 -10 -4 -5 3 -10 1 -10 -4 0 -6 8 -11 18 -11 10
0 19 7 19 15 0 8 -4 15 -9 15 -4 0 -8 -5 -8 -11z"/>
<path d="M1175 1920 c3 -5 8 -10 11 -10 2 0 4 5 4 10 0 6 -5 10 -11 10 -5 0
-7 -4 -4 -10z"/>
<path d="M675 1909 c-11 -16 -1 -19 13 -3 7 8 8 14 3 14 -5 0 -13 -5 -16 -11z"/>
<path d="M420 1901 c0 -6 4 -13 10 -16 6 -3 7 1 4 9 -7 18 -14 21 -14 7z"/>
<path d="M799 1908 c-7 -24 -4 -40 9 -50 15 -11 15 -11 6 2 -6 8 -10 23 -9 33
3 13 -2 26 -6 15z"/>
<path d="M1271 1894 c0 -11 3 -14 6 -6 3 7 2 16 -1 19 -3 4 -6 -2 -5 -13z"/>
<path d="M465 1880 c3 -5 8 -10 11 -10 2 0 4 5 4 10 0 6 -5 10 -11 10 -5 0 -7
-4 -4 -10z"/>
<path d="M655 1870 c-3 -5 -1 -10 4 -10 6 0 11 5 11 10 0 6 -2 10 -4 10 -3 0
-8 -4 -11 -10z"/>
<path d="M48 1863 c6 -2 18 -2 25 0 6 3 1 5 -13 5 -14 0 -19 -2 -12 -5z"/>
<path d="M1145 1860 c-3 -6 1 -7 9 -4 18 7 21 14 7 14 -6 0 -13 -4 -16 -10z"/>
<path d="M740 1839 c0 -5 5 -7 10 -4 6 3 10 8 10 11 0 2 -4 4 -10 4 -5 0 -10
-5 -10 -11z"/>
<path d="M777 1843 c-4 -6 -1 -16 7 -22 10 -9 15 -8 20 4 3 9 2 14 -3 10 -5
-3 -11 0 -13 7 -3 8 -6 9 -11 1z"/>
<path d="M938 1843 c7 -3 16 -2 19 1 4 3 -2 6 -13 5 -11 0 -14 -3 -6 -6z"/>
<path d="M1491 1834 c0 -11 3 -14 6 -6 3 7 2 16 -1 19 -3 4 -6 -2 -5 -13z"/>
<path d="M640 1836 c0 -2 7 -7 16 -10 8 -3 12 -2 9 4 -6 10 -25 14 -25 6z"/>
<path d="M566 1804 c-4 -14 -5 -28 -3 -31 3 -2 8 8 11 23 4 14 5 28 3 31 -3 2
-8 -8 -11 -23z"/>
<path d="M610 1806 c0 -2 7 -7 16 -10 8 -3 12 -2 9 4 -6 10 -25 14 -25 6z"/>
<path d="M720 1799 c0 -5 5 -7 10 -4 6 3 10 8 10 11 0 2 -4 4 -10 4 -5 0 -10
-5 -10 -11z"/>
<path d="M0 1789 c0 -5 5 -7 10 -4 5 3 10 8 10 11 0 2 -4 4 -10 4 -5 0 -10 -5
-10 -11z"/>
<path d="M80 1790 c8 -5 11 -10 5 -10 -5 0 -2 -5 8 -11 10 -6 21 -9 23 -6 7 7
-25 37 -39 37 -7 0 -6 -4 3 -10z"/>
<path d="M1490 1775 c0 -8 -5 -15 -12 -15 -6 0 -9 -2 -6 -5 3 -3 13 -3 22 1
17 7 22 34 6 34 -5 0 -10 -7 -10 -15z"/>
<path d="M664 1742 c11 -12 22 -19 25 -15 3 4 10 11 14 14 5 3 1 9 -8 12 -9 4
-13 3 -10 -3 9 -14 -8 -12 -25 3 -8 6 -6 2 4 -11z"/>
<path d="M1 1734 c0 -11 3 -14 6 -6 3 7 2 16 -1 19 -3 4 -6 -2 -5 -13z"/>
<path d="M1376 1724 c-4 -10 -2 -12 6 -8 7 5 9 2 5 -8 -3 -10 -1 -15 8 -14 22
3 23 10 4 28 -15 14 -18 14 -23 2z"/>
<path d="M1440 1730 c-8 -5 -10 -10 -5 -10 6 0 17 5 25 10 8 5 11 10 5 10 -5
0 -17 -5 -25 -10z"/>
<path d="M1001 1716 c-7 -8 -8 -17 -3 -20 6 -3 13 1 16 10 9 23 2 28 -13 10z"/>
<path d="M1277 1716 c-10 -25 1 -40 19 -25 15 13 20 34 5 25 -5 -4 -11 -1 -13
6 -3 7 -7 5 -11 -6z"/>
<path d="M30 1709 c0 -5 5 -7 10 -4 6 3 10 8 10 11 0 2 -4 4 -10 4 -5 0 -10
-5 -10 -11z"/>
<path d="M68 1713 c7 -3 16 -2 19 1 4 3 -2 6 -13 5 -11 0 -14 -3 -6 -6z"/>
<path d="M1204 1703 c3 -6 2 -14 -4 -18 -12 -8 -13 -25 -1 -25 15 0 22 33 10
44 -9 8 -10 8 -5 -1z"/>
<path d="M1320 1684 c0 -10 4 -12 13 -7 6 4 15 8 19 8 19 0 13 11 -7 13 -17 1
-25 -3 -25 -14z"/>
<path d="M430 1676 c0 -2 8 -10 18 -17 15 -13 16 -12 3 4 -13 16 -21 21 -21
13z"/>
<path d="M540 1671 c0 -6 4 -13 10 -16 6 -3 7 1 4 9 -7 18 -14 21 -14 7z"/>
<path d="M606 1667 c3 -10 9 -15 12 -12 3 3 0 11 -7 18 -10 9 -11 8 -5 -6z"/>
<path d="M1137 1673 c-4 -3 -7 -11 -7 -17 0 -6 5 -5 12 2 6 6 9 14 7 17 -3 3
-9 2 -12 -2z"/>
<path d="M1405 1669 c-4 -6 -5 -12 -2 -15 2 -3 7 2 10 11 7 17 1 20 -8 4z"/>
<path d="M1100 1650 c0 -5 5 -10 11 -10 5 0 7 5 4 10 -3 6 -8 10 -11 10 -2 0
-4 -4 -4 -10z"/>
<path d="M1296 1643 c-4 -9 -3 -20 1 -24 4 -4 9 3 9 17 2 28 -1 31 -10 7z"/>
<path d="M1200 1630 c-6 -11 -8 -20 -6 -20 3 0 10 9 16 20 6 11 8 20 6 20 -3
0 -10 -9 -16 -20z"/>
<path d="M1245 1640 c4 -6 11 -8 16 -5 14 9 11 15 -7 15 -8 0 -12 -5 -9 -10z"/>
<path d="M1044 1628 c-4 -7 -4 -10 1 -6 4 4 16 -3 26 -15 l19 -22 -11 28 c-13
29 -24 34 -35 15z"/>
<path d="M530 1600 c0 -11 2 -20 4 -20 2 0 6 9 9 20 3 11 1 20 -4 20 -5 0 -9
-9 -9 -20z"/>
<path d="M700 1616 c0 -2 8 -10 18 -17 15 -13 16 -12 3 4 -13 16 -21 21 -21
13z"/>
<path d="M1263 1589 c-2 -23 3 -25 10 -4 4 8 3 16 -1 19 -4 3 -9 -4 -9 -15z"/>
<path d="M910 1591 c0 -7 -5 -9 -12 -5 -7 5 -8 3 -3 -5 5 -9 10 -10 18 -2 6 6
8 14 4 18 -4 3 -7 1 -7 -6z"/>
<path d="M500 1569 c0 -5 5 -7 10 -4 6 3 10 8 10 11 0 2 -4 4 -10 4 -5 0 -10
-5 -10 -11z"/>
<path d="M1095 1569 c-4 -6 -5 -12 -2 -15 2 -3 7 2 10 11 7 17 1 20 -8 4z"/>
<path d="M868 1563 c-10 -2 -18 -9 -18 -14 0 -14 16 -11 30 6 7 8 11 14 9 14
-2 -1 -12 -3 -21 -6z"/>
<path d="M1262 1537 c-8 -10 -6 -13 9 -14 19 -2 26 11 10 21 -5 3 -14 0 -19
-7z"/>
<path d="M1143 1527 c-4 -6 -1 -7 7 -2 9 6 12 4 8 -6 -4 -10 1 -15 15 -17 16
-1 18 1 8 7 -7 5 -11 13 -8 18 3 5 -1 10 -9 10 -8 0 -18 -5 -21 -10z"/>
<path d="M1366 1495 c-9 -26 -7 -32 5 -12 6 10 9 21 6 23 -2 3 -7 -2 -11 -11z"/>
<path d="M1230 1490 c-9 -6 -10 -10 -3 -10 6 0 15 5 18 10 8 12 4 12 -15 0z"/>
<path d="M606 1458 c-11 -10 -17 -18 -14 -18 4 0 14 -3 22 -6 12 -5 15 -2 10
11 -7 16 -5 16 22 -1 16 -10 22 -11 14 -3 -8 8 -19 19 -25 25 -7 8 -16 5 -29
-8z"/>
<path d="M1331 1470 c-2 -30 12 -60 27 -60 14 0 13 2 0 18 -9 9 -18 26 -21 37
-3 11 -5 13 -6 5z"/>
<path d="M1365 1460 c-17 -8 -16 -8 8 -7 15 1 27 5 27 9 0 10 -9 9 -35 -2z"/>
<path d="M527 1437 c-7 -19 8 -43 17 -28 4 6 3 11 -3 11 -6 0 -8 7 -5 15 4 8
4 15 1 15 -3 0 -7 -6 -10 -13z"/>
<path d="M1487 1423 c-4 -3 -7 -11 -7 -17 0 -6 5 -5 12 2 6 6 9 14 7 17 -3 3
-9 2 -12 -2z"/>
<path d="M130 1406 c0 -2 7 -7 16 -10 8 -3 12 -2 9 4 -6 10 -25 14 -25 6z"/>
<path d="M1023 1397 c0 -7 9 -13 19 -13 10 0 18 1 18 3 0 1 -8 7 -18 12 -13 7
-19 6 -19 -2z"/>
<path d="M1240 1401 c0 -6 4 -13 10 -16 6 -3 7 1 4 9 -7 18 -14 21 -14 7z"/>
<path d="M1420 1400 c0 -5 5 -10 11 -10 5 0 7 5 4 10 -3 6 -8 10 -11 10 -2 0
-4 -4 -4 -10z"/>
<path d="M965 1380 c-3 -6 1 -7 9 -4 18 7 21 14 7 14 -6 0 -13 -4 -16 -10z"/>
<path d="M730 1366 c0 -3 9 -10 20 -16 11 -6 20 -8 20 -6 0 3 -9 10 -20 16
-11 6 -20 8 -20 6z"/>
<path d="M1316 1358 c3 -4 9 -8 15 -8 5 0 9 4 9 8 0 5 -7 9 -15 9 -8 0 -12 -4
-9 -9z"/>
<path d="M646 1284 c-4 -9 -4 -19 -1 -22 3 -3 5 0 5 7 0 8 6 11 16 7 14 -5 15
-4 4 9 -16 19 -16 19 -24 -1z"/>
<path d="M1257 1283 c3 -7 6 -13 8 -13 2 0 5 6 8 13 3 8 -1 14 -8 14 -7 0 -11
-6 -8 -14z"/>
<path d="M1161 1256 c-9 -11 -8 -17 8 -28 12 -8 18 -18 13 -23 -4 -5 -1 -5 7
0 12 7 11 10 -4 21 -10 7 -15 20 -12 29 8 19 3 19 -12 1z"/>
<path d="M1000 1246 c0 -8 4 -17 9 -20 5 -4 7 3 4 14 -6 23 -13 26 -13 6z"/>
<path d="M647 1239 c7 -7 15 -10 18 -7 3 3 -2 9 -12 12 -14 6 -15 5 -6 -5z"/>
<path d="M1100 1229 c0 -5 5 -7 10 -4 6 3 10 8 10 11 0 2 -4 4 -10 4 -5 0 -10
-5 -10 -11z"/>
<path d="M1245 1220 c-3 -5 -1 -10 4 -10 6 0 11 5 11 10 0 6 -2 10 -4 10 -3 0
-8 -4 -11 -10z"/>
<path d="M570 1209 c0 -5 5 -7 10 -4 6 3 10 8 10 11 0 2 -4 4 -10 4 -5 0 -10
-5 -10 -11z"/>
<path d="M1276 1205 c-3 -8 -1 -15 4 -15 13 0 22 18 11 24 -5 3 -11 -1 -15 -9z"/>
<path d="M1345 1200 c-3 -5 -1 -10 4 -10 6 0 11 5 11 10 0 6 -2 10 -4 10 -3 0
-8 -4 -11 -10z"/>
<path d="M677 1189 c7 -7 15 -10 18 -7 3 3 -2 9 -12 12 -14 6 -15 5 -6 -5z"/>
<path d="M1560 1180 c-6 -11 -8 -20 -6 -20 3 0 10 9 16 20 6 11 8 20 6 20 -3
0 -10 -9 -16 -20z"/>
<path d="M1104 1179 c-3 -6 -2 -15 3 -20 5 -5 9 -1 9 11 0 23 -2 24 -12 9z"/>
<path d="M957 1159 c7 -7 15 -10 18 -7 3 3 -2 9 -12 12 -14 6 -15 5 -6 -5z"/>
<path d="M1265 1159 c-4 -6 -5 -12 -2 -15 2 -3 7 2 10 11 7 17 1 20 -8 4z"/>
<path d="M650 1156 c0 -2 7 -7 16 -10 8 -3 12 -2 9 4 -6 10 -25 14 -25 6z"/>
<path d="M1199 1148 c14 -19 32 -15 30 5 0 8 -2 8 -6 -1 -4 -10 -8 -10 -21 0
-15 12 -16 11 -3 -4z"/>
<path d="M1303 1146 c11 -8 15 -21 11 -32 -5 -17 -4 -17 5 -2 14 21 4 48 -18
48 -14 -1 -14 -2 2 -14z"/>
<path d="M1047 1137 c-3 -8 1 -14 9 -14 16 0 19 13 5 21 -5 3 -11 0 -14 -7z"/>
<path d="M923 1125 c0 -7 6 -11 14 -8 7 3 13 6 13 8 0 2 -6 5 -13 8 -8 3 -14
-1 -14 -8z"/>
<path d="M1450 1120 c0 -5 5 -10 10 -10 6 0 10 5 10 10 0 6 -4 10 -10 10 -5 0
-10 -4 -10 -10z"/>
<path d="M1240 1115 c0 -7 30 -13 34 -7 3 4 -4 9 -15 9 -10 1 -19 0 -19 -2z"/>
<path d="M1410 1116 c0 -2 7 -9 15 -16 13 -11 14 -10 9 4 -5 14 -24 23 -24 12z"/>
<path d="M715 1101 c-6 -11 13 -26 22 -17 4 3 1 6 -6 6 -7 0 -9 5 -6 10 3 6 4
10 1 10 -3 0 -7 -4 -11 -9z"/>
<path d="M550 1096 c0 -2 7 -7 16 -10 8 -3 12 -2 9 4 -6 10 -25 14 -25 6z"/>
<path d="M1456 1092 c-3 -5 1 -9 9 -9 8 0 12 4 9 9 -3 4 -7 8 -9 8 -2 0 -6 -4
-9 -8z"/>
<path d="M770 1086 c0 -2 7 -9 15 -16 9 -7 15 -8 15 -2 0 5 -7 12 -15 16 -8 3
-15 4 -15 2z"/>
<path d="M1080 1070 c0 -5 5 -10 11 -10 5 0 7 5 4 10 -3 6 -8 10 -11 10 -2 0
-4 -4 -4 -10z"/>
<path d="M1246 1058 c10 -14 21 -24 23 -22 3 3 -6 15 -18 27 l-24 22 19 -27z"/>
<path d="M1355 1060 c3 -5 8 -10 11 -10 2 0 4 5 4 10 0 6 -5 10 -11 10 -5 0
-7 -4 -4 -10z"/>
<path d="M805 1041 c-3 -5 -2 -12 3 -15 5 -3 9 1 9 9 0 17 -3 19 -12 6z"/>
<path d="M1050 1040 c0 -5 5 -10 11 -10 5 0 7 5 4 10 -3 6 -8 10 -11 10 -2 0
-4 -4 -4 -10z"/>
<path d="M1410 1041 c0 -6 4 -13 10 -16 6 -3 7 1 4 9 -7 18 -14 21 -14 7z"/>
<path d="M1335 1015 c4 -37 12 -40 12 -5 0 17 -4 30 -8 30 -4 0 -6 -11 -4 -25z"/>
<path d="M1460 1025 c-7 -9 -10 -18 -7 -21 3 -3 10 4 17 15 13 25 8 27 -10 6z"/>
<path d="M1495 1030 c3 -5 8 -10 11 -10 2 0 4 5 4 10 0 6 -5 10 -11 10 -5 0
-7 -4 -4 -10z"/>
<path d="M566 1022 c-2 -4 4 -8 14 -8 10 0 16 4 14 8 -3 4 -9 8 -14 8 -5 0
-11 -4 -14 -8z"/>
<path d="M697 1018 c4 -7 8 -17 8 -22 0 -5 7 -11 15 -13 12 -4 12 -3 2 5 -8 5
-13 12 -13 16 3 19 0 26 -10 26 -6 0 -7 -5 -2 -12z"/>
<path d="M1020 1015 c0 -8 4 -15 8 -15 5 0 9 7 9 15 0 8 -4 15 -9 15 -4 0 -8
-7 -8 -15z"/>
<path d="M660 1016 c0 -2 7 -7 16 -10 8 -3 12 -2 9 4 -6 10 -25 14 -25 6z"/>
<path d="M1286 1001 c22 -21 27 -21 18 3 -3 9 -13 16 -22 16 -13 0 -12 -3 4
-19z"/>
<path d="M1433 967 c1 -15 5 -27 10 -27 10 0 9 22 -2 39 -7 10 -9 7 -8 -12z"/>
<path d="M681 954 c7 -8 6 -13 -3 -16 -7 -3 -8 -7 -3 -10 6 -3 16 0 23 8 8 9
9 14 2 14 -6 0 -9 4 -6 8 3 5 -1 9 -9 9 -11 0 -12 -4 -4 -13z"/>
<path d="M1060 950 c6 -11 13 -20 16 -20 2 0 0 9 -6 20 -6 11 -13 20 -16 20
-2 0 0 -9 6 -20z"/>
<path d="M1390 960 c0 -5 5 -10 10 -10 6 0 10 5 10 10 0 6 -4 10 -10 10 -5 0
-10 -4 -10 -10z"/>
<path d="M1246 948 c3 -4 9 -8 15 -8 5 0 9 4 9 8 0 5 -7 9 -15 9 -8 0 -12 -4
-9 -9z"/>
<path d="M1470 950 c0 -5 5 -10 11 -10 5 0 7 5 4 10 -3 6 -8 10 -11 10 -2 0
-4 -4 -4 -10z"/>
<path d="M731 947 c2 -1 13 -9 24 -17 19 -14 19 -14 6 3 -7 9 -18 17 -24 17
-6 0 -8 -1 -6 -3z"/>
<path d="M1203 935 c0 -8 4 -12 9 -9 5 3 6 10 3 15 -9 13 -12 11 -12 -6z"/>
<path d="M1233 908 c-1 -10 0 -18 2 -18 2 0 9 8 14 18 7 14 6 19 -3 19 -6 0
-13 -9 -13 -19z"/>
<path d="M1305 920 c4 -6 11 -8 16 -5 14 9 11 15 -7 15 -8 0 -12 -5 -9 -10z"/>
<path d="M1380 919 c0 -5 5 -7 10 -4 6 3 10 8 10 11 0 2 -4 4 -10 4 -5 0 -10
-5 -10 -11z"/>
<path d="M1538 907 c-3 -19 -2 -25 4 -19 6 6 8 18 6 28 -3 14 -5 12 -10 -9z"/>
<path d="M707 909 c7 -7 15 -10 18 -7 3 3 -2 9 -12 12 -14 6 -15 5 -6 -5z"/>
<path d="M1460 910 c0 -5 5 -10 10 -10 6 0 10 5 10 10 0 6 -4 10 -10 10 -5 0
-10 -4 -10 -10z"/>
<path d="M620 901 c0 -6 4 -13 10 -16 6 -3 7 1 4 9 -7 18 -14 21 -14 7z"/>
<path d="M750 906 c0 -2 7 -7 16 -10 8 -3 12 -2 9 4 -6 10 -25 14 -25 6z"/>
<path d="M1635 900 c-3 -6 1 -7 9 -4 9 3 16 1 16 -5 0 -6 5 -11 11 -11 8 0 8
5 -1 15 -14 17 -26 19 -35 5z"/>
<path d="M1341 878 c-13 -20 -12 -22 1 -11 8 7 18 10 22 6 4 -4 4 0 0 10 -8
21 -6 21 -23 -5z"/>
<path d="M692 863 c6 -7 16 -13 23 -13 6 0 12 6 12 13 0 6 -10 12 -23 12 -17
0 -20 -3 -12 -12z"/>
<path d="M758 873 c6 -2 10 -8 8 -11 -2 -4 7 -8 20 -8 23 -2 24 -1 7 12 -10 7
-25 13 -33 13 -10 0 -11 -2 -2 -6z"/>
<path d="M1455 869 c-4 -6 -5 -12 -2 -15 2 -3 7 2 10 11 7 17 1 20 -8 4z"/>
<path d="M1554 865 c-3 -8 -4 -20 -2 -27 3 -7 7 -1 10 15 6 29 1 36 -8 12z"/>
<path d="M640 856 c0 -3 9 -10 20 -16 11 -6 20 -8 20 -6 0 3 -9 10 -20 16 -11
6 -20 8 -20 6z"/>
<path d="M830 856 c0 -2 7 -7 16 -10 8 -3 12 -2 9 4 -6 10 -25 14 -25 6z"/>
<path d="M890 826 c0 -2 8 -10 18 -17 15 -13 16 -12 3 4 -13 16 -21 21 -21 13z"/>
<path d="M1216 817 c3 -10 9 -15 12 -12 3 3 0 11 -7 18 -10 9 -11 8 -5 -6z"/>
<path d="M700 786 c0 -2 7 -7 16 -10 8 -3 12 -2 9 4 -6 10 -25 14 -25 6z"/>
<path d="M990 780 c0 -5 5 -10 11 -10 5 0 7 5 4 10 -3 6 -8 10 -11 10 -2 0 -4
-4 -4 -10z"/>
<path d="M887 769 c7 -7 15 -10 18 -7 3 3 -2 9 -12 12 -14 6 -15 5 -6 -5z"/>
<path d="M1186 763 c-6 -14 -5 -15 5 -6 7 7 10 15 7 18 -3 3 -9 -2 -12 -12z"/>
<path d="M756 755 c10 -8 23 -15 28 -15 6 0 1 7 -10 15 -10 8 -23 15 -28 15
-6 0 -1 -7 10 -15z"/>
<path d="M1095 749 c-4 -6 -5 -12 -2 -15 2 -3 7 2 10 11 7 17 1 20 -8 4z"/>
<path d="M1725 750 c3 -5 8 -10 11 -10 2 0 4 5 4 10 0 6 -5 10 -11 10 -5 0 -7
-4 -4 -10z"/>
<path d="M1416 738 c3 -5 10 -6 15 -3 13 9 11 12 -6 12 -8 0 -12 -4 -9 -9z"/>
<path d="M810 730 c-9 -6 -10 -10 -3 -10 6 0 15 5 18 10 8 12 4 12 -15 0z"/>
<path d="M592 714 c10 -10 20 -15 24 -12 3 4 -5 12 -18 18 -22 12 -22 12 -6
-6z"/>
<path d="M936 713 c10 -7 24 -13 31 -13 11 0 11 3 2 13 -7 7 -21 13 -31 13
-18 0 -18 -1 -2 -13z"/>
<path d="M1076 696 c-13 -20 -13 -24 -2 -20 8 3 17 13 20 21 10 26 0 25 -18
-1z"/>
<path d="M1155 705 c10 -9 19 -27 20 -42 0 -14 7 -28 15 -30 9 -3 11 -1 4 4
-8 6 -11 44 -5 72 1 2 9 -3 19 -10 15 -13 16 -12 3 4 -10 13 -17 14 -26 7 -9
-8 -15 -8 -20 0 -3 5 -12 10 -18 10 -7 0 -3 -7 8 -15z"/>
<path d="M1036 695 c-3 -8 -1 -15 4 -15 6 0 10 7 10 15 0 8 -2 15 -4 15 -2 0
-6 -7 -10 -15z"/>
<path d="M1320 692 c6 -13 14 -21 18 -18 3 4 -2 14 -12 24 -18 16 -18 16 -6
-6z"/>
<path d="M1685 700 c-3 -5 -1 -10 4 -10 6 0 11 5 11 10 0 6 -2 10 -4 10 -3 0
-8 -4 -11 -10z"/>
<path d="M435 690 c3 -5 8 -10 11 -10 2 0 4 5 4 10 0 6 -5 10 -11 10 -5 0 -7
-4 -4 -10z"/>
<path d="M715 690 c-3 -5 -1 -10 4 -10 6 0 11 5 11 10 0 6 -2 10 -4 10 -3 0
-8 -4 -11 -10z"/>
<path d="M875 690 c-3 -5 -2 -10 4 -10 5 0 13 5 16 10 3 6 2 10 -4 10 -5 0
-13 -4 -16 -10z"/>
<path d="M1126 674 c5 -19 4 -25 -5 -20 -17 11 -13 0 7 -15 9 -7 14 -10 10 -5
-4 5 -3 16 1 25 6 10 4 21 -5 29 -13 12 -14 10 -8 -14z"/>
<path d="M1405 690 c-3 -5 -1 -10 4 -10 6 0 11 5 11 10 0 6 -2 10 -4 10 -3 0
-8 -4 -11 -10z"/>
<path d="M575 680 c3 -5 8 -10 11 -10 2 0 4 5 4 10 0 6 -5 10 -11 10 -5 0 -7
-4 -4 -10z"/>
<path d="M679 682 c9 -7 10 -12 2 -16 -6 -4 -9 -12 -6 -17 4 -5 1 -9 -6 -9 -7
0 -10 -2 -7 -5 3 -3 12 -3 20 0 18 7 16 48 -3 53 -12 3 -12 2 0 -6z"/>
<path d="M914 675 c-12 -9 -14 -14 -6 -15 7 0 20 7 28 15 20 19 4 20 -22 0z"/>
<path d="M1275 680 c-3 -5 1 -10 10 -10 9 0 13 5 10 10 -3 6 -8 10 -10 10 -2
0 -7 -4 -10 -10z"/>
<path d="M601 665 c1 -19 18 -51 18 -35 0 8 -4 22 -9 30 -5 8 -9 11 -9 5z"/>
<path d="M744 662 c3 -5 0 -13 -6 -15 -9 -4 -10 -6 -1 -6 17 -1 25 16 12 25
-7 4 -9 3 -5 -4z"/>
<path d="M1060 656 c0 -3 9 -10 20 -16 11 -6 20 -8 20 -6 0 3 -9 10 -20 16
-11 6 -20 8 -20 6z"/>
<path d="M1336 645 c-3 -8 -1 -15 4 -15 6 0 10 7 10 15 0 8 -2 15 -4 15 -2 0
-6 -7 -10 -15z"/>
<path d="M825 640 c3 -5 8 -10 11 -10 2 0 4 5 4 10 0 6 -5 10 -11 10 -5 0 -7
-4 -4 -10z"/>
<path d="M1220 638 c1 -30 50 -66 50 -37 0 5 -4 7 -10 4 -5 -3 -12 6 -16 20
-6 25 -24 35 -24 13z"/>
<path d="M1375 640 c-3 -5 -1 -10 4 -10 6 0 11 5 11 10 0 6 -2 10 -4 10 -3 0
-8 -4 -11 -10z"/>
<path d="M461 623 c6 -7 7 -13 2 -13 -5 0 -8 -12 -7 -27 1 -16 3 -34 3 -41 1
-7 5 -11 9 -8 15 9 102 -223 102 -271 0 -12 5 -25 11 -28 5 -4 14 -18 20 -32
5 -13 13 -22 18 -19 16 10 19 46 5 61 -21 20 -30 75 -13 75 11 0 11 2 0 13
-11 10 -14 9 -18 -1 -3 -9 -10 -3 -19 14 -8 15 -13 33 -10 40 3 7 -4 24 -15
38 -11 13 -19 28 -18 33 3 10 -8 40 -26 74 -8 14 -17 44 -21 66 -4 24 -11 40
-20 40 -10 0 -11 -4 -3 -14z"/>
<path d="M1007 633 c-10 -10 -8 -23 4 -23 5 0 7 5 3 12 -5 8 -2 9 10 5 10 -4
15 -3 11 3 -7 12 -19 13 -28 3z"/>
<path d="M695 620 c3 -5 8 -10 11 -10 2 0 4 5 4 10 0 6 -5 10 -11 10 -5 0 -7
-4 -4 -10z"/>
<path d="M772 611 c-11 -7 -11 -9 0 -14 9 -3 15 1 15 9 0 8 -1 14 -1 14 -1 0
-7 -4 -14 -9z"/>
<path d="M1150 605 c-19 -23 -8 -25 14 -4 11 11 15 19 9 19 -6 0 -16 -7 -23
-15z"/>
<path d="M1345 600 c-8 -13 -1 -24 14 -19 6 3 7 10 2 18 -6 10 -10 10 -16 1z"/>
<path d="M1385 600 c3 -5 8 -10 11 -10 2 0 4 5 4 10 0 6 -5 10 -11 10 -5 0 -7
-4 -4 -10z"/>
<path d="M970 586 c0 -2 7 -7 16 -10 8 -3 12 -2 9 4 -6 10 -25 14 -25 6z"/>
<path d="M1410 580 c0 -6 7 -10 15 -10 8 0 15 2 15 4 0 2 -7 6 -15 10 -8 3
-15 1 -15 -4z"/>
<path d="M980 550 c-9 -6 -10 -10 -3 -10 6 0 15 5 18 10 8 12 4 12 -15 0z"/>
<path d="M1621 555 c1 -19 18 -51 18 -35 0 8 -4 22 -9 30 -5 8 -9 11 -9 5z"/>
<path d="M1166 541 c-4 -5 3 -7 14 -4 23 6 26 13 6 13 -8 0 -17 -4 -20 -9z"/>
<path d="M1670 540 c0 -5 5 -10 11 -10 5 0 7 5 4 10 -3 6 -8 10 -11 10 -2 0
-4 -4 -4 -10z"/>
<path d="M1055 532 c-9 -6 -19 -32 -12 -32 1 0 10 9 20 20 16 20 12 27 -8 12z"/>
<path d="M1475 530 c-3 -5 -1 -10 4 -10 6 0 11 5 11 10 0 6 -2 10 -4 10 -3 0
-8 -4 -11 -10z"/>
<path d="M1576 528 c3 -5 10 -6 15 -3 13 9 11 12 -6 12 -8 0 -12 -4 -9 -9z"/>
<path d="M1130 526 c0 -2 7 -7 16 -10 8 -3 12 -2 9 4 -6 10 -25 14 -25 6z"/>
<path d="M445 510 c3 -5 8 -10 11 -10 2 0 4 5 4 10 0 6 -5 10 -11 10 -5 0 -7
-4 -4 -10z"/>
<path d="M907 504 c6 -15 23 -19 23 -5 0 5 -7 11 -14 14 -10 4 -13 1 -9 -9z"/>
<path d="M1403 474 c0 -18 3 -22 10 -15 8 8 15 5 25 -11 13 -22 13 -22 9 -2
-4 19 -1 22 33 20 25 -1 36 2 33 9 -4 13 -33 16 -33 4 0 -5 -11 -4 -25 1 -14
5 -25 7 -25 4 0 -4 -6 -1 -14 5 -11 9 -13 6 -13 -15z"/>
<path d="M1705 490 c3 -5 8 -10 11 -10 2 0 4 5 4 10 0 6 -5 10 -11 10 -5 0 -7
-4 -4 -10z"/>
<path d="M874 474 c-18 -14 -18 -15 4 -4 12 6 22 13 22 15 0 8 -5 6 -26 -11z"/>
<path d="M1333 483 c-20 -7 -3 -31 18 -26 10 3 19 9 19 13 0 10 -22 18 -37 13z"/>
<path d="M1380 480 c0 -5 5 -10 11 -10 5 0 7 5 4 10 -3 6 -8 10 -11 10 -2 0
-4 -4 -4 -10z"/>
<path d="M1530 479 c0 -20 27 -33 34 -16 2 7 5 -4 6 -23 2 -32 3 -33 10 -10 4
14 9 18 9 10 1 -12 3 -13 10 -1 7 11 11 10 20 -5 8 -14 11 -15 11 -4 0 13 1
13 10 0 7 -12 9 -10 8 7 -2 14 -7 19 -17 15 -8 -3 -12 -1 -8 4 5 9 -3 11 -55
16 -13 1 -26 7 -30 12 -5 7 -8 5 -8 -5z"/>
<path d="M733 460 c-1 -11 2 -20 6 -20 5 0 7 -11 6 -24 -2 -18 1 -23 11 -19
10 4 12 0 8 -11 -7 -17 11 -23 21 -6 3 5 -3 15 -15 22 -27 17 -26 31 3 23 18
-5 17 -3 -5 10 -31 17 -38 31 -12 21 14 -5 15 -4 4 9 -17 20 -25 19 -27 -5z"/>
<path d="M440 455 c0 -8 4 -15 10 -15 5 0 7 7 4 15 -4 8 -8 15 -10 15 -2 0 -4
-7 -4 -15z"/>
<path d="M690 451 c0 -25 6 -27 13 -6 4 8 2 17 -3 20 -6 4 -10 -3 -10 -14z"/>
<path d="M780 464 c0 -5 57 -34 67 -34 4 0 0 5 -10 11 -9 6 -16 13 -13 17 2 4
-7 8 -20 8 -13 1 -24 0 -24 -2z"/>
<path d="M1270 454 c0 -8 6 -11 15 -8 8 4 15 9 15 13 0 4 -7 8 -15 8 -8 0 -15
-6 -15 -13z"/>
<path d="M980 450 c0 -5 5 -10 11 -10 5 0 7 5 4 10 -3 6 -8 10 -11 10 -2 0 -4
-4 -4 -10z"/>
<path d="M1206 444 c-8 -21 -8 -24 5 -24 5 0 7 5 4 10 -3 6 -1 10 4 10 6 0 11
5 11 10 0 16 -17 12 -24 -6z"/>
<path d="M1237 446 c-6 -14 0 -26 13 -26 3 0 6 9 6 20 0 23 -11 27 -19 6z"/>
<path d="M1830 449 c0 -5 5 -7 10 -4 6 3 10 8 10 11 0 2 -4 4 -10 4 -5 0 -10
-5 -10 -11z"/>
<path d="M5500 434 c-12 -30 -6 -44 19 -44 26 0 42 20 31 40 -16 30 -40 32
-50 4z"/>
<path d="M1410 435 c-11 -13 -10 -14 4 -9 9 3 16 10 16 15 0 13 -6 11 -20 -6z"/>
<path d="M1477 429 c6 -23 9 -24 16 -5 3 8 0 17 -7 19 -10 4 -12 -1 -9 -14z"/>
<path d="M1671 433 c-1 -24 13 -31 25 -11 4 6 3 8 -4 4 -6 -3 -13 2 -15 11 -4
14 -5 13 -6 -4z"/>
<path d="M1123 426 c1 -6 -5 -11 -13 -10 -9 1 -21 -4 -27 -11 -8 -9 -4 -12 17
-11 15 1 26 4 24 8 -6 9 34 21 46 13 5 -3 10 -2 10 3 0 5 -13 12 -29 14 -18 3
-29 0 -28 -6z"/>
<path d="M1518 433 c7 -3 16 -2 19 1 4 3 -2 6 -13 5 -11 0 -14 -3 -6 -6z"/>
<path d="M50 420 c0 -5 5 -10 11 -10 5 0 7 5 4 10 -3 6 -8 10 -11 10 -2 0 -4
-4 -4 -10z"/>
<path d="M637 419 c7 -7 15 -10 18 -7 3 3 -2 9 -12 12 -14 6 -15 5 -6 -5z"/>
<path d="M0 416 c0 -2 7 -7 16 -10 8 -3 12 -2 9 4 -6 10 -25 14 -25 6z"/>
<path d="M1781 394 c0 -11 3 -14 6 -6 3 7 2 16 -1 19 -3 4 -6 -2 -5 -13z"/>
<path d="M1250 385 c-11 -13 -10 -14 4 -9 9 3 16 10 16 15 0 13 -6 11 -20 -6z"/>
<path d="M1560 393 c0 -4 5 -15 10 -23 8 -13 10 -13 10 2 0 9 -4 20 -10 23 -5
3 -10 3 -10 -2z"/>
<path d="M1688 377 c-3 -19 -2 -25 4 -19 6 6 8 18 6 28 -3 14 -5 12 -10 -9z"/>
<path d="M1036 382 c-2 -4 -1 -14 3 -21 6 -9 11 -10 15 -2 4 6 2 11 -4 11 -6
0 -8 5 -5 10 3 6 4 10 1 10 -3 0 -7 -4 -10 -8z"/>
<path d="M1469 368 c0 -22 -1 -22 -10 -3 -8 19 -9 19 -6 1 3 -24 27 -34 27
-12 0 9 5 16 11 16 5 0 7 5 4 10 -11 18 -25 11 -26 -12z"/>
<path d="M1734 370 c0 -13 4 -16 10 -10 7 7 7 13 0 20 -6 6 -10 3 -10 -10z"/>
<path d="M805 370 c3 -5 8 -10 11 -10 2 0 4 5 4 10 0 6 -5 10 -11 10 -5 0 -7
-4 -4 -10z"/>
<path d="M1206 364 c-9 -24 -2 -26 12 -4 7 11 8 20 3 20 -5 0 -12 -7 -15 -16z"/>
<path d="M5581 366 c-14 -8 -42 -14 -62 -14 -21 0 -49 -8 -63 -18 -14 -9 -26
-14 -26 -11 0 3 -15 -9 -32 -26 -18 -18 -31 -35 -30 -39 1 -5 -3 -8 -9 -8 -7
0 -10 -14 -7 -37 3 -22 -3 -58 -13 -85 -16 -45 -16 -52 4 -49 4 1 15 -5 23
-14 9 -8 23 -15 33 -15 10 0 35 -11 55 -25 34 -23 46 -25 141 -25 95 0 105 2
115 20 6 11 15 18 20 15 6 -4 30 44 30 59 0 1 -15 0 -33 -2 -42 -5 -64 28 -48
71 10 26 24 32 65 27 18 -2 18 -1 0 24 -18 23 -20 24 -33 8 -12 -15 -13 -14
-7 12 6 25 5 28 -7 18 -8 -7 -17 -9 -21 -5 -3 4 -24 6 -44 5 -28 -2 -43 3 -57
18 -17 19 -17 21 0 40 10 11 21 17 26 14 4 -2 16 0 26 5 10 5 27 12 38 16 19
6 19 7 -5 20 -31 18 -49 18 -79 1z"/>
<path d="M973 353 c-18 -9 -33 -21 -33 -25 0 -5 5 -6 10 -3 6 4 17 1 25 -5 12
-10 15 -9 15 5 0 10 8 24 18 31 23 18 4 16 -35 -3z"/>
<path d="M1779 358 c7 -9 9 -23 5 -30 -6 -10 -4 -11 7 0 11 10 10 15 -6 30
-17 15 -18 15 -6 0z"/>
<path d="M1114 325 c-10 -8 -14 -15 -8 -15 5 0 14 4 20 9 5 5 18 11 29 14 20
5 19 5 -1 6 -11 0 -29 -6 -40 -14z"/>
<path d="M1350 330 c0 -5 5 -10 11 -10 5 0 7 5 4 10 -3 6 -8 10 -11 10 -2 0
-4 -4 -4 -10z"/>
<path d="M760 326 c0 -2 8 -10 18 -17 15 -13 16 -12 3 4 -13 16 -21 21 -21 13z"/>
<path d="M1594 308 c1 -20 4 -24 14 -16 14 12 17 32 3 24 -5 -4 -11 0 -14 6
-2 7 -4 1 -3 -14z"/>
<path d="M910 313 c0 -6 -10 -9 -22 -6 -21 4 -21 3 -5 -7 20 -12 48 2 34 17
-4 3 -7 2 -7 -4z"/>
<path d="M1060 300 c-13 -8 -12 -10 3 -10 9 0 17 5 17 10 0 12 -1 12 -20 0z"/>
<path d="M1859 293 c-13 -16 -12 -17 4 -4 16 13 21 21 13 21 -2 0 -10 -8 -17
-17z"/>
<path d="M730 296 c0 -2 7 -7 16 -10 8 -3 12 -2 9 4 -6 10 -25 14 -25 6z"/>
<path d="M954 289 c-4 -7 -3 -9 4 -5 5 3 13 0 15 -6 4 -9 6 -10 6 -1 1 17 -16
25 -25 12z"/>
<path d="M1310 284 c0 -8 5 -12 10 -9 6 3 10 10 10 16 0 5 -4 9 -10 9 -5 0
-10 -7 -10 -16z"/>
<path d="M850 275 c-14 -8 -19 -14 -12 -15 8 0 3 -9 -11 -22 -13 -13 -27 -30
-30 -38 -3 -9 -6 -10 -6 -2 -1 6 -6 12 -12 12 -5 0 -8 -4 -5 -9 4 -5 0 -12 -6
-14 -8 -3 -6 -6 4 -6 12 -1 15 -6 11 -18 -6 -16 -5 -17 9 -3 8 9 23 30 32 48
9 18 21 32 26 32 6 0 10 6 10 14 0 8 6 16 13 19 6 2 10 7 7 10 -3 3 -16 -1
-30 -8z"/>
<path d="M1270 275 c7 -9 15 -13 17 -11 7 7 -7 26 -19 26 -6 0 -6 -6 2 -15z"/>
<path d="M1620 279 c0 -5 5 -7 10 -4 6 3 10 8 10 11 0 2 -4 4 -10 4 -5 0 -10
-5 -10 -11z"/>
<path d="M1005 271 c-3 -5 -1 -12 5 -16 5 -3 10 1 10 9 0 18 -6 21 -15 7z"/>
<path d="M1391 254 c0 -11 3 -14 6 -6 3 7 2 16 -1 19 -3 4 -6 -2 -5 -13z"/>
<path d="M1185 250 c-8 -13 5 -13 25 0 13 8 13 10 -2 10 -9 0 -20 -4 -23 -10z"/>
<path d="M1646 243 c-6 -14 -5 -15 5 -6 7 7 10 15 7 18 -3 3 -9 -2 -12 -12z"/>
<path d="M1680 244 c0 -8 5 -12 10 -9 6 4 8 11 5 16 -9 14 -15 11 -15 -7z"/>
<path d="M1716 241 c9 -9 34 -9 34 -1 0 5 -9 8 -20 7 -10 -1 -17 -3 -14 -6z"/>
<path d="M1830 233 c-13 -15 -12 -16 4 -10 10 4 20 7 22 7 2 0 4 5 4 10 0 15
-13 12 -30 -7z"/>
<path d="M1606 223 c-6 -14 -5 -15 5 -6 7 7 10 15 7 18 -3 3 -9 -2 -12 -12z"/>
<path d="M742 214 c-7 -8 -8 -14 -3 -14 10 0 25 19 20 25 -2 1 -10 -3 -17 -11z"/>
<path d="M940 226 c0 -2 7 -7 16 -10 8 -3 12 -2 9 4 -6 10 -25 14 -25 6z"/>
<path d="M1178 223 c7 -3 16 -2 19 1 4 3 -2 6 -13 5 -11 0 -14 -3 -6 -6z"/>
<path d="M1314 215 c4 -12 -33 -41 -49 -37 -5 1 -1 -5 9 -13 11 -8 25 -15 30
-14 6 0 5 3 -2 6 -16 6 3 33 24 33 8 0 14 8 14 18 0 10 -7 19 -15 19 -9 0 -14
-6 -11 -12z"/>
<path d="M1412 217 c-8 -10 -5 -16 11 -26 15 -9 18 -10 10 -1 -6 7 -9 19 -6
26 7 18 -1 18 -15 1z"/>
<path d="M1660 225 c0 -5 5 -17 10 -25 5 -8 10 -10 10 -5 0 6 -5 17 -10 25 -5
8 -10 11 -10 5z"/>
<path d="M1701 223 c-2 -20 11 -43 20 -37 5 3 9 10 9 15 0 6 -4 8 -9 4 -5 -3
-12 3 -14 12 -3 10 -5 13 -6 6z"/>
<path d="M560 216 c0 -2 7 -9 15 -16 13 -11 14 -10 9 4 -5 14 -24 23 -24 12z"/>
<path d="M1135 211 c-3 -5 -1 -12 4 -15 5 -3 11 1 15 9 6 16 -9 21 -19 6z"/>
<path d="M1740 203 c0 -18 18 -35 33 -31 12 2 10 7 -9 21 -13 10 -24 14 -24
10z"/>
<path d="M5859 191 c-19 -16 -22 -22 -11 -32 9 -10 15 -10 24 -1 7 7 20 12 31
12 12 0 17 6 15 17 -5 25 -31 27 -59 4z"/>
<path d="M900 191 c0 -6 4 -13 10 -16 6 -3 7 1 4 9 -7 18 -14 21 -14 7z"/>
<path d="M941 184 c0 -11 3 -14 6 -6 3 7 2 16 -1 19 -3 4 -6 -2 -5 -13z"/>
<path d="M1365 190 c3 -5 8 -10 11 -10 2 0 4 5 4 10 0 6 -5 10 -11 10 -5 0 -7
-4 -4 -10z"/>
<path d="M870 180 c0 -5 5 -10 11 -10 5 0 7 5 4 10 -3 6 -8 10 -11 10 -2 0 -4
-4 -4 -10z"/>
<path d="M1092 178 c2 -6 10 -14 16 -16 7 -2 10 2 6 12 -7 18 -28 22 -22 4z"/>
<path d="M1812 175 c4 -4 3 -16 -3 -26 -5 -11 -7 -19 -5 -19 3 0 10 9 16 19 7
15 7 22 -2 27 -7 4 -10 4 -6 -1z"/>
<path d="M1220 155 c0 -7 30 -13 34 -7 3 4 -4 9 -15 9 -10 1 -19 0 -19 -2z"/>
<path d="M1513 153 c-13 -2 -23 -8 -23 -12 0 -12 39 -6 52 7 12 12 10 13 -29
5z"/>
<path d="M1565 149 c-4 -6 -4 -13 -1 -16 3 -4 6 -1 6 6 0 8 8 11 20 8 11 -3
18 -1 14 4 -7 12 -31 11 -39 -2z"/>
<path d="M1625 150 c-3 -5 -1 -10 4 -10 6 0 11 5 11 10 0 6 -2 10 -4 10 -3 0
-8 -4 -11 -10z"/>
<path d="M1650 150 c0 -5 7 -7 15 -4 8 4 15 8 15 10 0 2 -7 4 -15 4 -8 0 -15
-4 -15 -10z"/>
<path d="M920 140 c0 -6 7 -10 15 -10 8 0 15 2 15 4 0 2 -7 6 -15 10 -8 3 -15
1 -15 -4z"/>
<path d="M826 123 c-6 -14 -5 -15 5 -6 7 7 10 15 7 18 -3 3 -9 -2 -12 -12z"/>
<path d="M1091 124 c0 -11 3 -14 6 -6 3 7 2 16 -1 19 -3 4 -6 -2 -5 -13z"/>
<path d="M1420 130 c-20 -12 -10 -19 14 -10 11 3 15 9 10 13 -6 3 -16 2 -24
-3z"/>
<path d="M1460 130 c0 -5 5 -10 10 -10 6 0 10 5 10 10 0 6 -4 10 -10 10 -5 0
-10 -4 -10 -10z"/>
<path d="M1686 127 c3 -10 9 -15 12 -12 3 3 0 11 -7 18 -10 9 -11 8 -5 -6z"/>
<path d="M1001 104 c-14 -32 -11 -36 10 -14 9 10 13 23 10 29 -5 7 -12 2 -20
-15z"/>
<path d="M1722 116 c7 -8 15 -12 17 -11 5 6 -10 25 -20 25 -5 0 -4 -6 3 -14z"/>
<path d="M1380 110 c0 -5 5 -10 10 -10 6 0 10 5 10 10 0 6 -4 10 -10 10 -5 0
-10 -4 -10 -10z"/>
<path d="M1756 105 c4 -8 11 -15 16 -15 6 0 5 6 -2 15 -7 8 -14 15 -16 15 -2
0 -1 -7 2 -15z"/>
<path d="M1855 110 c-3 -5 -1 -10 4 -10 6 0 11 5 11 10 0 6 -2 10 -4 10 -3 0
-8 -4 -11 -10z"/>
<path d="M730 101 c0 -5 5 -13 10 -16 6 -3 10 -2 10 4 0 5 -4 13 -10 16 -5 3
-10 2 -10 -4z"/>
<path d="M895 90 c-3 -5 -2 -10 4 -10 5 0 13 5 16 10 3 6 2 10 -4 10 -5 0 -13
-4 -16 -10z"/>
<path d="M1333 93 c-7 -2 -13 -8 -13 -13 0 -10 38 -1 46 11 6 10 -13 11 -33 2z"/>
<path d="M580 43 c0 -25 2 -44 4 -42 8 10 13 89 5 89 -5 0 -9 -21 -9 -47z"/>
<path d="M795 80 c3 -5 11 -10 16 -10 6 0 7 5 4 10 -3 6 -11 10 -16 10 -6 0
-7 -4 -4 -10z"/>
<path d="M1653 59 c0 -31 2 -32 29 -21 15 6 15 9 -6 29 l-23 22 0 -30z"/>
<path d="M700 65 c0 -8 2 -15 4 -15 2 0 6 7 10 15 3 8 1 15 -4 15 -6 0 -10 -7
-10 -15z"/>
<path d="M1388 73 c7 -3 16 -2 19 1 4 3 -2 6 -13 5 -11 0 -14 -3 -6 -6z"/>
<path d="M888 63 c7 -3 16 -2 19 1 4 3 -2 6 -13 5 -11 0 -14 -3 -6 -6z"/>
<path d="M1276 54 c-4 -9 -4 -19 -1 -22 3 -3 5 0 5 6 0 7 7 12 15 12 8 0 15 5
15 10 0 16 -27 11 -34 -6z"/>
<path d="M1705 60 c3 -5 8 -10 11 -10 2 0 4 5 4 10 0 6 -5 10 -11 10 -5 0 -7
-4 -4 -10z"/>
<path d="M1430 49 c0 -5 5 -7 10 -4 6 3 10 8 10 11 0 2 -4 4 -10 4 -5 0 -10
-5 -10 -11z"/>
<path d="M809 33 c-13 -16 -12 -17 4 -4 9 7 17 15 17 17 0 8 -8 3 -21 -13z"/>
<path d="M1525 40 c-3 -5 -2 -10 4 -10 5 0 13 5 16 10 3 6 2 10 -4 10 -5 0
-13 -4 -16 -10z"/>
<path d="M1580 40 c-8 -5 -12 -11 -9 -14 2 -3 11 -1 19 4 8 5 12 11 9 14 -2 3
-11 1 -19 -4z"/>
<path d="M1733 35 c-7 -8 -9 -16 -4 -19 5 -3 12 1 15 10 8 22 4 25 -11 9z"/>
<path d="M745 20 c-3 -5 -1 -10 4 -10 6 0 11 5 11 10 0 6 -2 10 -4 10 -3 0 -8
-4 -11 -10z"/>
<path d="M1338 23 c7 -3 16 -2 19 1 4 3 -2 6 -13 5 -11 0 -14 -3 -6 -6z"/>
<path d="M1780 20 c-13 -8 -12 -10 3 -10 9 0 17 5 17 10 0 12 -1 12 -20 0z"/>
<path d="M1860 26 c0 -2 7 -6 15 -10 8 -3 15 -1 15 4 0 6 -7 10 -15 10 -8 0
-15 -2 -15 -4z"/>
<path d="M1700 10 c0 -5 5 -10 11 -10 5 0 7 5 4 10 -3 6 -8 10 -11 10 -2 0 -4
-4 -4 -10z"/>
</g>
</svg>
